<svg xmlns="http://www.w3.org/2000/svg" viewBox="0 0 700 500" width="700" height="500" role="img" aria-label="Project gallery image 2"><defs>
<linearGradient id="bg25" x1="0" y1="0" x2="1" y2="1">
<stop offset="0%" stop-color="#1A1F3D"/><stop offset="55%" stop-color="#33406E"/><stop offset="100%" stop-color="#1A1F3D"/>
</linearGradient>
<linearGradient id="sky25" x1="0" y1="0" x2="0" y2="1">
<stop offset="0%" stop-color="#C9A227" stop-opacity="0.30"/><stop offset="100%" stop-color="#C9A227" stop-opacity="0"/>
</linearGradient>
<radialGradient id="glow25" cx="0.72" cy="0.18" r="0.6">
<stop offset="0%" stop-color="#C9A227" stop-opacity="0.45"/><stop offset="100%" stop-color="#C9A227" stop-opacity="0"/>
</radialGradient>
</defs><rect width="700" height="500" fill="url(#bg25)"/><rect width="700" height="500" fill="url(#glow25)"/><circle cx="518" cy="120" r="45" fill="#C9A227" opacity="0.5"/><g fill="#000000" opacity="0.22"><rect x="-40" y="296" width="36" height="144" rx="2"/><rect x="-31" y="334" width="7" height="11" rx="1" fill="#ffffff" opacity="0.16"/><rect x="-31" y="360" width="7" height="11" rx="1" fill="#ffffff" opacity="0.16"/><rect x="10" y="150" width="55" height="290" rx="2"/><rect x="19" y="214" width="7" height="11" rx="1" fill="#ffffff" opacity="0.16"/><rect x="19" y="240" width="7" height="11" rx="1" fill="#ffffff" opacity="0.16"/><rect x="19" y="292" width="7" height="11" rx="1" fill="#ffffff" opacity="0.16"/><rect x="19" y="344" width="7" height="11" rx="1" fill="#ffffff" opacity="0.16"/><rect x="19" y="370" width="7" height="11" rx="1" fill="#ffffff" opacity="0.16"/><rect x="41" y="188" width="7" height="11" rx="1" fill="#ffffff" opacity="0.16"/><rect x="41" y="266" width="7" height="11" rx="1" fill="#ffffff" opacity="0.16"/><rect x="41" y="370" width="7" height="11" rx="1" fill="#ffffff" opacity="0.16"/><rect x="69" y="214" width="53" height="226" rx="2"/><rect x="78" y="252" width="7" height="11" rx="1" fill="#ffffff" opacity="0.16"/><rect x="78" y="304" width="7" height="11" rx="1" fill="#ffffff" opacity="0.16"/><rect x="78" y="330" width="7" height="11" rx="1" fill="#ffffff" opacity="0.16"/><rect x="78" y="356" width="7" height="11" rx="1" fill="#ffffff" opacity="0.16"/><rect x="78" y="382" width="7" height="11" rx="1" fill="#ffffff" opacity="0.16"/><rect x="100" y="226" width="7" height="11" rx="1" fill="#ffffff" opacity="0.16"/><rect x="100" y="278" width="7" height="11" rx="1" fill="#ffffff" opacity="0.16"/><rect x="100" y="304" width="7" height="11" rx="1" fill="#ffffff" opacity="0.16"/><rect x="100" y="356" width="7" height="11" rx="1" fill="#ffffff" opacity="0.16"/><rect x="130" y="178" width="58" height="262" rx="2"/><rect x="139" y="190" width="7" height="11" rx="1" fill="#ffffff" opacity="0.16"/><rect x="139" y="216" width="7" height="11" rx="1" fill="#ffffff" opacity="0.16"/><rect x="139" y="242" width="7" height="11" rx="1" fill="#ffffff" opacity="0.16"/><rect x="139" y="268" width="7" height="11" rx="1" fill="#ffffff" opacity="0.16"/><rect x="139" y="320" width="7" height="11" rx="1" fill="#ffffff" opacity="0.16"/><rect x="161" y="190" width="7" height="11" rx="1" fill="#ffffff" opacity="0.16"/><rect x="161" y="242" width="7" height="11" rx="1" fill="#ffffff" opacity="0.16"/><rect x="161" y="346" width="7" height="11" rx="1" fill="#ffffff" opacity="0.16"/><rect x="194" y="234" width="49" height="206" rx="2"/><rect x="203" y="246" width="7" height="11" rx="1" fill="#ffffff" opacity="0.16"/><rect x="203" y="272" width="7" height="11" rx="1" fill="#ffffff" opacity="0.16"/><rect x="203" y="298" width="7" height="11" rx="1" fill="#ffffff" opacity="0.16"/><rect x="203" y="324" width="7" height="11" rx="1" fill="#ffffff" opacity="0.16"/><rect x="203" y="350" width="7" height="11" rx="1" fill="#ffffff" opacity="0.16"/><rect x="203" y="376" width="7" height="11" rx="1" fill="#ffffff" opacity="0.16"/><rect x="225" y="246" width="7" height="11" rx="1" fill="#ffffff" opacity="0.16"/><rect x="225" y="272" width="7" height="11" rx="1" fill="#ffffff" opacity="0.16"/><rect x="225" y="298" width="7" height="11" rx="1" fill="#ffffff" opacity="0.16"/><rect x="225" y="324" width="7" height="11" rx="1" fill="#ffffff" opacity="0.16"/><rect x="225" y="350" width="7" height="11" rx="1" fill="#ffffff" opacity="0.16"/><rect x="251" y="126" width="69" height="314" rx="2"/><rect x="260" y="164" width="7" height="11" rx="1" fill="#ffffff" opacity="0.16"/><rect x="260" y="216" width="7" height="11" rx="1" fill="#ffffff" opacity="0.16"/><rect x="260" y="242" width="7" height="11" rx="1" fill="#ffffff" opacity="0.16"/><rect x="260" y="268" width="7" height="11" rx="1" fill="#ffffff" opacity="0.16"/><rect x="260" y="346" width="7" height="11" rx="1" fill="#ffffff" opacity="0.16"/><rect x="282" y="138" width="7" height="11" rx="1" fill="#ffffff" opacity="0.16"/><rect x="282" y="164" width="7" height="11" rx="1" fill="#ffffff" opacity="0.16"/><rect x="282" y="190" width="7" height="11" rx="1" fill="#ffffff" opacity="0.16"/><rect x="282" y="216" width="7" height="11" rx="1" fill="#ffffff" opacity="0.16"/><rect x="282" y="294" width="7" height="11" rx="1" fill="#ffffff" opacity="0.16"/><rect x="282" y="346" width="7" height="11" rx="1" fill="#ffffff" opacity="0.16"/><rect x="304" y="164" width="7" height="11" rx="1" fill="#ffffff" opacity="0.16"/><rect x="304" y="190" width="7" height="11" rx="1" fill="#ffffff" opacity="0.16"/><rect x="304" y="242" width="7" height="11" rx="1" fill="#ffffff" opacity="0.16"/><rect x="304" y="268" width="7" height="11" rx="1" fill="#ffffff" opacity="0.16"/><rect x="304" y="294" width="7" height="11" rx="1" fill="#ffffff" opacity="0.16"/><rect x="304" y="320" width="7" height="11" rx="1" fill="#ffffff" opacity="0.16"/><rect x="304" y="346" width="7" height="11" rx="1" fill="#ffffff" opacity="0.16"/><rect x="333" y="236" width="38" height="204" rx="2"/><rect x="342" y="248" width="7" height="11" rx="1" fill="#ffffff" opacity="0.16"/><rect x="342" y="300" width="7" height="11" rx="1" fill="#ffffff" opacity="0.16"/><rect x="342" y="378" width="7" height="11" rx="1" fill="#ffffff" opacity="0.16"/><rect x="378" y="189" width="82" height="251" rx="2"/><rect x="387" y="201" width="7" height="11" rx="1" fill="#ffffff" opacity="0.16"/><rect x="387" y="279" width="7" height="11" rx="1" fill="#ffffff" opacity="0.16"/><rect x="387" y="305" width="7" height="11" rx="1" fill="#ffffff" opacity="0.16"/><rect x="387" y="331" width="7" height="11" rx="1" fill="#ffffff" opacity="0.16"/><rect x="387" y="383" width="7" height="11" rx="1" fill="#ffffff" opacity="0.16"/><rect x="409" y="279" width="7" height="11" rx="1" fill="#ffffff" opacity="0.16"/><rect x="409" y="357" width="7" height="11" rx="1" fill="#ffffff" opacity="0.16"/><rect x="431" y="201" width="7" height="11" rx="1" fill="#ffffff" opacity="0.16"/><rect x="431" y="253" width="7" height="11" rx="1" fill="#ffffff" opacity="0.16"/><rect x="431" y="357" width="7" height="11" rx="1" fill="#ffffff" opacity="0.16"/><rect x="465" y="256" width="54" height="184" rx="2"/><rect x="474" y="268" width="7" height="11" rx="1" fill="#ffffff" opacity="0.16"/><rect x="474" y="372" width="7" height="11" rx="1" fill="#ffffff" opacity="0.16"/><rect x="496" y="294" width="7" height="11" rx="1" fill="#ffffff" opacity="0.16"/><rect x="496" y="320" width="7" height="11" rx="1" fill="#ffffff" opacity="0.16"/><rect x="496" y="372" width="7" height="11" rx="1" fill="#ffffff" opacity="0.16"/><rect x="523" y="143" width="36" height="297" rx="2"/><rect x="532" y="207" width="7" height="11" rx="1" fill="#ffffff" opacity="0.16"/><rect x="532" y="233" width="7" height="11" rx="1" fill="#ffffff" opacity="0.16"/><rect x="532" y="285" width="7" height="11" rx="1" fill="#ffffff" opacity="0.16"/><rect x="532" y="311" width="7" height="11" rx="1" fill="#ffffff" opacity="0.16"/><rect x="571" y="235" width="54" height="205" rx="2"/><rect x="580" y="247" width="7" height="11" rx="1" fill="#ffffff" opacity="0.16"/><rect x="580" y="273" width="7" height="11" rx="1" fill="#ffffff" opacity="0.16"/><rect x="580" y="351" width="7" height="11" rx="1" fill="#ffffff" opacity="0.16"/><rect x="580" y="377" width="7" height="11" rx="1" fill="#ffffff" opacity="0.16"/><rect x="602" y="247" width="7" height="11" rx="1" fill="#ffffff" opacity="0.16"/><rect x="602" y="273" width="7" height="11" rx="1" fill="#ffffff" opacity="0.16"/><rect x="602" y="299" width="7" height="11" rx="1" fill="#ffffff" opacity="0.16"/><rect x="602" y="377" width="7" height="11" rx="1" fill="#ffffff" opacity="0.16"/><rect x="634" y="264" width="73" height="176" rx="2"/><rect x="643" y="302" width="7" height="11" rx="1" fill="#ffffff" opacity="0.16"/><rect x="665" y="380" width="7" height="11" rx="1" fill="#ffffff" opacity="0.16"/><rect x="687" y="276" width="7" height="11" rx="1" fill="#ffffff" opacity="0.16"/><rect x="687" y="328" width="7" height="11" rx="1" fill="#ffffff" opacity="0.16"/><rect x="720" y="277" width="42" height="163" rx="2"/><rect x="729" y="289" width="7" height="11" rx="1" fill="#ffffff" opacity="0.16"/><rect x="729" y="341" width="7" height="11" rx="1" fill="#ffffff" opacity="0.16"/></g><g fill="#000000" opacity="0.42"><rect x="-40" y="372" width="74" height="148" rx="2"/><rect x="-31" y="410" width="7" height="11" rx="1" fill="#ffffff" opacity="0.16"/><rect x="-31" y="436" width="7" height="11" rx="1" fill="#ffffff" opacity="0.16"/><rect x="-9" y="384" width="7" height="11" rx="1" fill="#ffffff" opacity="0.16"/><rect x="13" y="384" width="7" height="11" rx="1" fill="#ffffff" opacity="0.16"/><rect x="13" y="410" width="7" height="11" rx="1" fill="#ffffff" opacity="0.16"/><rect x="13" y="462" width="7" height="11" rx="1" fill="#ffffff" opacity="0.16"/><rect x="46" y="258" width="36" height="262" rx="2"/><rect x="55" y="296" width="7" height="11" rx="1" fill="#ffffff" opacity="0.16"/><rect x="55" y="322" width="7" height="11" rx="1" fill="#ffffff" opacity="0.16"/><rect x="55" y="426" width="7" height="11" rx="1" fill="#ffffff" opacity="0.16"/><rect x="96" y="241" width="68" height="279" rx="2"/><rect x="105" y="331" width="7" height="11" rx="1" fill="#ffffff" opacity="0.16"/><rect x="105" y="409" width="7" height="11" rx="1" fill="#ffffff" opacity="0.16"/><rect x="127" y="253" width="7" height="11" rx="1" fill="#ffffff" opacity="0.16"/><rect x="127" y="279" width="7" height="11" rx="1" fill="#ffffff" opacity="0.16"/><rect x="127" y="435" width="7" height="11" rx="1" fill="#ffffff" opacity="0.16"/><rect x="149" y="305" width="7" height="11" rx="1" fill="#ffffff" opacity="0.16"/><rect x="149" y="331" width="7" height="11" rx="1" fill="#ffffff" opacity="0.16"/><rect x="149" y="357" width="7" height="11" rx="1" fill="#ffffff" opacity="0.16"/><rect x="149" y="383" width="7" height="11" rx="1" fill="#ffffff" opacity="0.16"/><rect x="149" y="409" width="7" height="11" rx="1" fill="#ffffff" opacity="0.16"/><rect x="175" y="251" width="69" height="269" rx="2"/><rect x="184" y="289" width="7" height="11" rx="1" fill="#ffffff" opacity="0.16"/><rect x="184" y="315" width="7" height="11" rx="1" fill="#ffffff" opacity="0.16"/><rect x="184" y="393" width="7" height="11" rx="1" fill="#ffffff" opacity="0.16"/><rect x="184" y="445" width="7" height="11" rx="1" fill="#ffffff" opacity="0.16"/><rect x="206" y="263" width="7" height="11" rx="1" fill="#ffffff" opacity="0.16"/><rect x="206" y="393" width="7" height="11" rx="1" fill="#ffffff" opacity="0.16"/><rect x="228" y="263" width="7" height="11" rx="1" fill="#ffffff" opacity="0.16"/><rect x="228" y="341" width="7" height="11" rx="1" fill="#ffffff" opacity="0.16"/><rect x="254" y="226" width="88" height="294" rx="2"/><rect x="263" y="238" width="7" height="11" rx="1" fill="#ffffff" opacity="0.16"/><rect x="263" y="264" width="7" height="11" rx="1" fill="#ffffff" opacity="0.16"/><rect x="263" y="290" width="7" height="11" rx="1" fill="#ffffff" opacity="0.16"/><rect x="263" y="316" width="7" height="11" rx="1" fill="#ffffff" opacity="0.16"/><rect x="263" y="420" width="7" height="11" rx="1" fill="#ffffff" opacity="0.16"/><rect x="263" y="446" width="7" height="11" rx="1" fill="#ffffff" opacity="0.16"/><rect x="285" y="264" width="7" height="11" rx="1" fill="#ffffff" opacity="0.16"/><rect x="285" y="290" width="7" height="11" rx="1" fill="#ffffff" opacity="0.16"/><rect x="285" y="342" width="7" height="11" rx="1" fill="#ffffff" opacity="0.16"/><rect x="285" y="394" width="7" height="11" rx="1" fill="#ffffff" opacity="0.16"/><rect x="307" y="264" width="7" height="11" rx="1" fill="#ffffff" opacity="0.16"/><rect x="307" y="316" width="7" height="11" rx="1" fill="#ffffff" opacity="0.16"/><rect x="307" y="446" width="7" height="11" rx="1" fill="#ffffff" opacity="0.16"/><rect x="329" y="238" width="7" height="11" rx="1" fill="#ffffff" opacity="0.16"/><rect x="329" y="368" width="7" height="11" rx="1" fill="#ffffff" opacity="0.16"/><rect x="329" y="394" width="7" height="11" rx="1" fill="#ffffff" opacity="0.16"/><rect x="329" y="420" width="7" height="11" rx="1" fill="#ffffff" opacity="0.16"/><rect x="349" y="227" width="71" height="293" rx="2"/><rect x="358" y="239" width="7" height="11" rx="1" fill="#ffffff" opacity="0.16"/><rect x="358" y="421" width="7" height="11" rx="1" fill="#ffffff" opacity="0.16"/><rect x="380" y="239" width="7" height="11" rx="1" fill="#ffffff" opacity="0.16"/><rect x="380" y="291" width="7" height="11" rx="1" fill="#ffffff" opacity="0.16"/><rect x="380" y="317" width="7" height="11" rx="1" fill="#ffffff" opacity="0.16"/><rect x="380" y="343" width="7" height="11" rx="1" fill="#ffffff" opacity="0.16"/><rect x="380" y="395" width="7" height="11" rx="1" fill="#ffffff" opacity="0.16"/><rect x="402" y="239" width="7" height="11" rx="1" fill="#ffffff" opacity="0.16"/><rect x="402" y="291" width="7" height="11" rx="1" fill="#ffffff" opacity="0.16"/><rect x="402" y="317" width="7" height="11" rx="1" fill="#ffffff" opacity="0.16"/><rect x="402" y="343" width="7" height="11" rx="1" fill="#ffffff" opacity="0.16"/><rect x="402" y="369" width="7" height="11" rx="1" fill="#ffffff" opacity="0.16"/><rect x="402" y="421" width="7" height="11" rx="1" fill="#ffffff" opacity="0.16"/><rect x="428" y="329" width="81" height="191" rx="2"/><rect x="437" y="341" width="7" height="11" rx="1" fill="#ffffff" opacity="0.16"/><rect x="437" y="393" width="7" height="11" rx="1" fill="#ffffff" opacity="0.16"/><rect x="459" y="367" width="7" height="11" rx="1" fill="#ffffff" opacity="0.16"/><rect x="481" y="393" width="7" height="11" rx="1" fill="#ffffff" opacity="0.16"/><rect x="525" y="296" width="74" height="224" rx="2"/><rect x="534" y="334" width="7" height="11" rx="1" fill="#ffffff" opacity="0.16"/><rect x="534" y="438" width="7" height="11" rx="1" fill="#ffffff" opacity="0.16"/><rect x="534" y="464" width="7" height="11" rx="1" fill="#ffffff" opacity="0.16"/><rect x="556" y="386" width="7" height="11" rx="1" fill="#ffffff" opacity="0.16"/><rect x="556" y="438" width="7" height="11" rx="1" fill="#ffffff" opacity="0.16"/><rect x="556" y="464" width="7" height="11" rx="1" fill="#ffffff" opacity="0.16"/><rect x="578" y="386" width="7" height="11" rx="1" fill="#ffffff" opacity="0.16"/><rect x="578" y="412" width="7" height="11" rx="1" fill="#ffffff" opacity="0.16"/><rect x="606" y="287" width="44" height="233" rx="2"/><rect x="615" y="299" width="7" height="11" rx="1" fill="#ffffff" opacity="0.16"/><rect x="615" y="351" width="7" height="11" rx="1" fill="#ffffff" opacity="0.16"/><rect x="615" y="377" width="7" height="11" rx="1" fill="#ffffff" opacity="0.16"/><rect x="615" y="429" width="7" height="11" rx="1" fill="#ffffff" opacity="0.16"/><rect x="615" y="455" width="7" height="11" rx="1" fill="#ffffff" opacity="0.16"/><rect x="637" y="299" width="7" height="11" rx="1" fill="#ffffff" opacity="0.16"/><rect x="637" y="325" width="7" height="11" rx="1" fill="#ffffff" opacity="0.16"/><rect x="637" y="377" width="7" height="11" rx="1" fill="#ffffff" opacity="0.16"/><rect x="637" y="403" width="7" height="11" rx="1" fill="#ffffff" opacity="0.16"/><rect x="637" y="429" width="7" height="11" rx="1" fill="#ffffff" opacity="0.16"/><rect x="637" y="455" width="7" height="11" rx="1" fill="#ffffff" opacity="0.16"/><rect x="657" y="233" width="43" height="287" rx="2"/><rect x="666" y="245" width="7" height="11" rx="1" fill="#ffffff" opacity="0.16"/><rect x="666" y="297" width="7" height="11" rx="1" fill="#ffffff" opacity="0.16"/><rect x="666" y="349" width="7" height="11" rx="1" fill="#ffffff" opacity="0.16"/><rect x="666" y="427" width="7" height="11" rx="1" fill="#ffffff" opacity="0.16"/><rect x="716" y="245" width="38" height="275" rx="2"/><rect x="725" y="257" width="7" height="11" rx="1" fill="#ffffff" opacity="0.16"/><rect x="725" y="283" width="7" height="11" rx="1" fill="#ffffff" opacity="0.16"/><rect x="725" y="309" width="7" height="11" rx="1" fill="#ffffff" opacity="0.16"/><rect x="725" y="387" width="7" height="11" rx="1" fill="#ffffff" opacity="0.16"/></g><rect x="0" y="478" width="700" height="25" fill="#000000" opacity="0.5"/><rect x="0" y="494" width="700" height="6" fill="#C9A227" opacity="0.85"/><rect width="700" height="500" fill="url(#sky25)"/></svg>