<svg xmlns="http://www.w3.org/2000/svg" viewBox="0 0 700 500" width="700" height="500" role="img" aria-label="Project gallery image 6"><defs>
<linearGradient id="bg69" x1="0" y1="0" x2="1" y2="1">
<stop offset="0%" stop-color="#0B1F3A"/><stop offset="55%" stop-color="#1B3A5F"/><stop offset="100%" stop-color="#0B1F3A"/>
</linearGradient>
<linearGradient id="sky69" x1="0" y1="0" x2="0" y2="1">
<stop offset="0%" stop-color="#C8A24A" stop-opacity="0.30"/><stop offset="100%" stop-color="#C8A24A" stop-opacity="0"/>
</linearGradient>
<radialGradient id="glow69" cx="0.72" cy="0.18" r="0.6">
<stop offset="0%" stop-color="#C8A24A" stop-opacity="0.45"/><stop offset="100%" stop-color="#C8A24A" stop-opacity="0"/>
</radialGradient>
</defs><rect width="700" height="500" fill="url(#bg69)"/><rect width="700" height="500" fill="url(#glow69)"/><circle cx="518" cy="120" r="45" fill="#C8A24A" opacity="0.5"/><g fill="#000000" opacity="0.22"><rect x="-40" y="270" width="71" height="170" rx="2"/><rect x="-31" y="282" width="7" height="11" rx="1" fill="#ffffff" opacity="0.16"/><rect x="-31" y="308" width="7" height="11" rx="1" fill="#ffffff" opacity="0.16"/><rect x="-31" y="334" width="7" height="11" rx="1" fill="#ffffff" opacity="0.16"/><rect x="-31" y="360" width="7" height="11" rx="1" fill="#ffffff" opacity="0.16"/><rect x="-31" y="386" width="7" height="11" rx="1" fill="#ffffff" opacity="0.16"/><rect x="-9" y="360" width="7" height="11" rx="1" fill="#ffffff" opacity="0.16"/><rect x="13" y="282" width="7" height="11" rx="1" fill="#ffffff" opacity="0.16"/><rect x="13" y="308" width="7" height="11" rx="1" fill="#ffffff" opacity="0.16"/><rect x="40" y="278" width="56" height="162" rx="2"/><rect x="71" y="342" width="7" height="11" rx="1" fill="#ffffff" opacity="0.16"/><rect x="108" y="156" width="35" height="284" rx="2"/><rect x="117" y="194" width="7" height="11" rx="1" fill="#ffffff" opacity="0.16"/><rect x="117" y="246" width="7" height="11" rx="1" fill="#ffffff" opacity="0.16"/><rect x="159" y="193" width="57" height="247" rx="2"/><rect x="168" y="205" width="7" height="11" rx="1" fill="#ffffff" opacity="0.16"/><rect x="168" y="231" width="7" height="11" rx="1" fill="#ffffff" opacity="0.16"/><rect x="168" y="283" width="7" height="11" rx="1" fill="#ffffff" opacity="0.16"/><rect x="168" y="309" width="7" height="11" rx="1" fill="#ffffff" opacity="0.16"/><rect x="190" y="205" width="7" height="11" rx="1" fill="#ffffff" opacity="0.16"/><rect x="190" y="231" width="7" height="11" rx="1" fill="#ffffff" opacity="0.16"/><rect x="190" y="283" width="7" height="11" rx="1" fill="#ffffff" opacity="0.16"/><rect x="190" y="309" width="7" height="11" rx="1" fill="#ffffff" opacity="0.16"/><rect x="190" y="335" width="7" height="11" rx="1" fill="#ffffff" opacity="0.16"/><rect x="221" y="290" width="50" height="150" rx="2"/><rect x="230" y="328" width="7" height="11" rx="1" fill="#ffffff" opacity="0.16"/><rect x="230" y="354" width="7" height="11" rx="1" fill="#ffffff" opacity="0.16"/><rect x="252" y="380" width="7" height="11" rx="1" fill="#ffffff" opacity="0.16"/><rect x="285" y="307" width="58" height="133" rx="2"/><rect x="294" y="345" width="7" height="11" rx="1" fill="#ffffff" opacity="0.16"/><rect x="294" y="371" width="7" height="11" rx="1" fill="#ffffff" opacity="0.16"/><rect x="347" y="168" width="49" height="272" rx="2"/><rect x="356" y="232" width="7" height="11" rx="1" fill="#ffffff" opacity="0.16"/><rect x="356" y="258" width="7" height="11" rx="1" fill="#ffffff" opacity="0.16"/><rect x="356" y="284" width="7" height="11" rx="1" fill="#ffffff" opacity="0.16"/><rect x="356" y="362" width="7" height="11" rx="1" fill="#ffffff" opacity="0.16"/><rect x="378" y="180" width="7" height="11" rx="1" fill="#ffffff" opacity="0.16"/><rect x="378" y="258" width="7" height="11" rx="1" fill="#ffffff" opacity="0.16"/><rect x="378" y="362" width="7" height="11" rx="1" fill="#ffffff" opacity="0.16"/><rect x="402" y="174" width="49" height="266" rx="2"/><rect x="411" y="212" width="7" height="11" rx="1" fill="#ffffff" opacity="0.16"/><rect x="411" y="290" width="7" height="11" rx="1" fill="#ffffff" opacity="0.16"/><rect x="411" y="316" width="7" height="11" rx="1" fill="#ffffff" opacity="0.16"/><rect x="411" y="342" width="7" height="11" rx="1" fill="#ffffff" opacity="0.16"/><rect x="411" y="368" width="7" height="11" rx="1" fill="#ffffff" opacity="0.16"/><rect x="433" y="264" width="7" height="11" rx="1" fill="#ffffff" opacity="0.16"/><rect x="433" y="342" width="7" height="11" rx="1" fill="#ffffff" opacity="0.16"/><rect x="466" y="288" width="91" height="152" rx="2"/><rect x="475" y="352" width="7" height="11" rx="1" fill="#ffffff" opacity="0.16"/><rect x="475" y="378" width="7" height="11" rx="1" fill="#ffffff" opacity="0.16"/><rect x="519" y="300" width="7" height="11" rx="1" fill="#ffffff" opacity="0.16"/><rect x="519" y="326" width="7" height="11" rx="1" fill="#ffffff" opacity="0.16"/><rect x="519" y="352" width="7" height="11" rx="1" fill="#ffffff" opacity="0.16"/><rect x="541" y="300" width="7" height="11" rx="1" fill="#ffffff" opacity="0.16"/><rect x="541" y="326" width="7" height="11" rx="1" fill="#ffffff" opacity="0.16"/><rect x="541" y="378" width="7" height="11" rx="1" fill="#ffffff" opacity="0.16"/><rect x="573" y="204" width="60" height="236" rx="2"/><rect x="582" y="242" width="7" height="11" rx="1" fill="#ffffff" opacity="0.16"/><rect x="604" y="268" width="7" height="11" rx="1" fill="#ffffff" opacity="0.16"/><rect x="604" y="294" width="7" height="11" rx="1" fill="#ffffff" opacity="0.16"/><rect x="604" y="320" width="7" height="11" rx="1" fill="#ffffff" opacity="0.16"/><rect x="604" y="372" width="7" height="11" rx="1" fill="#ffffff" opacity="0.16"/><rect x="642" y="169" width="75" height="271" rx="2"/><rect x="651" y="181" width="7" height="11" rx="1" fill="#ffffff" opacity="0.16"/><rect x="651" y="363" width="7" height="11" rx="1" fill="#ffffff" opacity="0.16"/><rect x="673" y="181" width="7" height="11" rx="1" fill="#ffffff" opacity="0.16"/><rect x="673" y="259" width="7" height="11" rx="1" fill="#ffffff" opacity="0.16"/><rect x="673" y="285" width="7" height="11" rx="1" fill="#ffffff" opacity="0.16"/><rect x="673" y="363" width="7" height="11" rx="1" fill="#ffffff" opacity="0.16"/><rect x="695" y="233" width="7" height="11" rx="1" fill="#ffffff" opacity="0.16"/><rect x="695" y="259" width="7" height="11" rx="1" fill="#ffffff" opacity="0.16"/><rect x="695" y="285" width="7" height="11" rx="1" fill="#ffffff" opacity="0.16"/><rect x="695" y="337" width="7" height="11" rx="1" fill="#ffffff" opacity="0.16"/><rect x="695" y="363" width="7" height="11" rx="1" fill="#ffffff" opacity="0.16"/><rect x="729" y="130" width="41" height="310" rx="2"/><rect x="738" y="142" width="7" height="11" rx="1" fill="#ffffff" opacity="0.16"/><rect x="738" y="168" width="7" height="11" rx="1" fill="#ffffff" opacity="0.16"/><rect x="738" y="194" width="7" height="11" rx="1" fill="#ffffff" opacity="0.16"/><rect x="738" y="220" width="7" height="11" rx="1" fill="#ffffff" opacity="0.16"/><rect x="738" y="246" width="7" height="11" rx="1" fill="#ffffff" opacity="0.16"/><rect x="738" y="298" width="7" height="11" rx="1" fill="#ffffff" opacity="0.16"/></g><g fill="#000000" opacity="0.42"><rect x="-40" y="225" width="52" height="295" rx="2"/><rect x="-31" y="315" width="7" height="11" rx="1" fill="#ffffff" opacity="0.16"/><rect x="-31" y="419" width="7" height="11" rx="1" fill="#ffffff" opacity="0.16"/><rect x="-31" y="445" width="7" height="11" rx="1" fill="#ffffff" opacity="0.16"/><rect x="-9" y="237" width="7" height="11" rx="1" fill="#ffffff" opacity="0.16"/><rect x="-9" y="315" width="7" height="11" rx="1" fill="#ffffff" opacity="0.16"/><rect x="-9" y="367" width="7" height="11" rx="1" fill="#ffffff" opacity="0.16"/><rect x="22" y="304" width="52" height="216" rx="2"/><rect x="31" y="316" width="7" height="11" rx="1" fill="#ffffff" opacity="0.16"/><rect x="31" y="368" width="7" height="11" rx="1" fill="#ffffff" opacity="0.16"/><rect x="31" y="446" width="7" height="11" rx="1" fill="#ffffff" opacity="0.16"/><rect x="53" y="342" width="7" height="11" rx="1" fill="#ffffff" opacity="0.16"/><rect x="53" y="420" width="7" height="11" rx="1" fill="#ffffff" opacity="0.16"/><rect x="84" y="323" width="60" height="197" rx="2"/><rect x="93" y="335" width="7" height="11" rx="1" fill="#ffffff" opacity="0.16"/><rect x="93" y="387" width="7" height="11" rx="1" fill="#ffffff" opacity="0.16"/><rect x="93" y="465" width="7" height="11" rx="1" fill="#ffffff" opacity="0.16"/><rect x="115" y="387" width="7" height="11" rx="1" fill="#ffffff" opacity="0.16"/><rect x="155" y="255" width="49" height="265" rx="2"/><rect x="164" y="319" width="7" height="11" rx="1" fill="#ffffff" opacity="0.16"/><rect x="164" y="371" width="7" height="11" rx="1" fill="#ffffff" opacity="0.16"/><rect x="164" y="397" width="7" height="11" rx="1" fill="#ffffff" opacity="0.16"/><rect x="164" y="449" width="7" height="11" rx="1" fill="#ffffff" opacity="0.16"/><rect x="186" y="267" width="7" height="11" rx="1" fill="#ffffff" opacity="0.16"/><rect x="186" y="293" width="7" height="11" rx="1" fill="#ffffff" opacity="0.16"/><rect x="186" y="345" width="7" height="11" rx="1" fill="#ffffff" opacity="0.16"/><rect x="186" y="371" width="7" height="11" rx="1" fill="#ffffff" opacity="0.16"/><rect x="186" y="423" width="7" height="11" rx="1" fill="#ffffff" opacity="0.16"/><rect x="214" y="374" width="43" height="146" rx="2"/><rect x="223" y="438" width="7" height="11" rx="1" fill="#ffffff" opacity="0.16"/><rect x="270" y="248" width="43" height="272" rx="2"/><rect x="279" y="286" width="7" height="11" rx="1" fill="#ffffff" opacity="0.16"/><rect x="279" y="312" width="7" height="11" rx="1" fill="#ffffff" opacity="0.16"/><rect x="279" y="338" width="7" height="11" rx="1" fill="#ffffff" opacity="0.16"/><rect x="279" y="390" width="7" height="11" rx="1" fill="#ffffff" opacity="0.16"/><rect x="279" y="416" width="7" height="11" rx="1" fill="#ffffff" opacity="0.16"/><rect x="279" y="442" width="7" height="11" rx="1" fill="#ffffff" opacity="0.16"/><rect x="322" y="390" width="48" height="130" rx="2"/><rect x="331" y="402" width="7" height="11" rx="1" fill="#ffffff" opacity="0.16"/><rect x="331" y="428" width="7" height="11" rx="1" fill="#ffffff" opacity="0.16"/><rect x="353" y="428" width="7" height="11" rx="1" fill="#ffffff" opacity="0.16"/><rect x="375" y="300" width="42" height="220" rx="2"/><rect x="384" y="312" width="7" height="11" rx="1" fill="#ffffff" opacity="0.16"/><rect x="384" y="338" width="7" height="11" rx="1" fill="#ffffff" opacity="0.16"/><rect x="384" y="390" width="7" height="11" rx="1" fill="#ffffff" opacity="0.16"/><rect x="384" y="416" width="7" height="11" rx="1" fill="#ffffff" opacity="0.16"/><rect x="384" y="442" width="7" height="11" rx="1" fill="#ffffff" opacity="0.16"/><rect x="429" y="275" width="39" height="245" rx="2"/><rect x="438" y="287" width="7" height="11" rx="1" fill="#ffffff" opacity="0.16"/><rect x="438" y="313" width="7" height="11" rx="1" fill="#ffffff" opacity="0.16"/><rect x="438" y="417" width="7" height="11" rx="1" fill="#ffffff" opacity="0.16"/><rect x="438" y="443" width="7" height="11" rx="1" fill="#ffffff" opacity="0.16"/><rect x="473" y="378" width="75" height="142" rx="2"/><rect x="526" y="416" width="7" height="11" rx="1" fill="#ffffff" opacity="0.16"/><rect x="526" y="442" width="7" height="11" rx="1" fill="#ffffff" opacity="0.16"/><rect x="554" y="381" width="43" height="139" rx="2"/><rect x="563" y="419" width="7" height="11" rx="1" fill="#ffffff" opacity="0.16"/><rect x="602" y="329" width="50" height="191" rx="2"/><rect x="611" y="367" width="7" height="11" rx="1" fill="#ffffff" opacity="0.16"/><rect x="611" y="419" width="7" height="11" rx="1" fill="#ffffff" opacity="0.16"/><rect x="611" y="445" width="7" height="11" rx="1" fill="#ffffff" opacity="0.16"/><rect x="633" y="367" width="7" height="11" rx="1" fill="#ffffff" opacity="0.16"/><rect x="633" y="419" width="7" height="11" rx="1" fill="#ffffff" opacity="0.16"/><rect x="633" y="445" width="7" height="11" rx="1" fill="#ffffff" opacity="0.16"/><rect x="667" y="292" width="78" height="228" rx="2"/><rect x="676" y="356" width="7" height="11" rx="1" fill="#ffffff" opacity="0.16"/><rect x="676" y="382" width="7" height="11" rx="1" fill="#ffffff" opacity="0.16"/><rect x="676" y="408" width="7" height="11" rx="1" fill="#ffffff" opacity="0.16"/><rect x="698" y="330" width="7" height="11" rx="1" fill="#ffffff" opacity="0.16"/><rect x="698" y="356" width="7" height="11" rx="1" fill="#ffffff" opacity="0.16"/><rect x="698" y="382" width="7" height="11" rx="1" fill="#ffffff" opacity="0.16"/><rect x="698" y="408" width="7" height="11" rx="1" fill="#ffffff" opacity="0.16"/><rect x="698" y="434" width="7" height="11" rx="1" fill="#ffffff" opacity="0.16"/><rect x="720" y="330" width="7" height="11" rx="1" fill="#ffffff" opacity="0.16"/><rect x="720" y="434" width="7" height="11" rx="1" fill="#ffffff" opacity="0.16"/></g><rect x="0" y="478" width="700" height="25" fill="#000000" opacity="0.5"/><rect x="0" y="494" width="700" height="6" fill="#C8A24A" opacity="0.85"/><rect width="700" height="500" fill="url(#sky69)"/></svg>