<svg xmlns="http://www.w3.org/2000/svg" viewBox="0 0 700 460" width="700" height="460" role="img" aria-label="News image 4"><defs>
<linearGradient id="bg82" x1="0" y1="0" x2="1" y2="1">
<stop offset="0%" stop-color="#0B1F3A"/><stop offset="55%" stop-color="#1B3A5F"/><stop offset="100%" stop-color="#0B1F3A"/>
</linearGradient>
<linearGradient id="sky82" x1="0" y1="0" x2="0" y2="1">
<stop offset="0%" stop-color="#C8A24A" stop-opacity="0.30"/><stop offset="100%" stop-color="#C8A24A" stop-opacity="0"/>
</linearGradient>
<radialGradient id="glow82" cx="0.72" cy="0.18" r="0.6">
<stop offset="0%" stop-color="#C8A24A" stop-opacity="0.45"/><stop offset="100%" stop-color="#C8A24A" stop-opacity="0"/>
</radialGradient>
</defs><rect width="700" height="460" fill="url(#bg82)"/><rect width="700" height="460" fill="url(#glow82)"/><circle cx="518" cy="110" r="41" fill="#C8A24A" opacity="0.5"/><g fill="#000000" opacity="0.22"><rect x="-40" y="115" width="54" height="293" rx="2"/><rect x="-31" y="179" width="7" height="11" rx="1" fill="#ffffff" opacity="0.16"/><rect x="-31" y="309" width="7" height="11" rx="1" fill="#ffffff" opacity="0.16"/><rect x="-31" y="335" width="7" height="11" rx="1" fill="#ffffff" opacity="0.16"/><rect x="-9" y="127" width="7" height="11" rx="1" fill="#ffffff" opacity="0.16"/><rect x="-9" y="179" width="7" height="11" rx="1" fill="#ffffff" opacity="0.16"/><rect x="-9" y="205" width="7" height="11" rx="1" fill="#ffffff" opacity="0.16"/><rect x="-9" y="257" width="7" height="11" rx="1" fill="#ffffff" opacity="0.16"/><rect x="-9" y="283" width="7" height="11" rx="1" fill="#ffffff" opacity="0.16"/><rect x="-9" y="309" width="7" height="11" rx="1" fill="#ffffff" opacity="0.16"/><rect x="29" y="194" width="77" height="214" rx="2"/><rect x="38" y="206" width="7" height="11" rx="1" fill="#ffffff" opacity="0.16"/><rect x="38" y="232" width="7" height="11" rx="1" fill="#ffffff" opacity="0.16"/><rect x="38" y="258" width="7" height="11" rx="1" fill="#ffffff" opacity="0.16"/><rect x="38" y="336" width="7" height="11" rx="1" fill="#ffffff" opacity="0.16"/><rect x="60" y="206" width="7" height="11" rx="1" fill="#ffffff" opacity="0.16"/><rect x="60" y="232" width="7" height="11" rx="1" fill="#ffffff" opacity="0.16"/><rect x="60" y="258" width="7" height="11" rx="1" fill="#ffffff" opacity="0.16"/><rect x="60" y="284" width="7" height="11" rx="1" fill="#ffffff" opacity="0.16"/><rect x="60" y="336" width="7" height="11" rx="1" fill="#ffffff" opacity="0.16"/><rect x="82" y="206" width="7" height="11" rx="1" fill="#ffffff" opacity="0.16"/><rect x="82" y="232" width="7" height="11" rx="1" fill="#ffffff" opacity="0.16"/><rect x="82" y="284" width="7" height="11" rx="1" fill="#ffffff" opacity="0.16"/><rect x="82" y="310" width="7" height="11" rx="1" fill="#ffffff" opacity="0.16"/><rect x="112" y="200" width="81" height="208" rx="2"/><rect x="121" y="238" width="7" height="11" rx="1" fill="#ffffff" opacity="0.16"/><rect x="121" y="264" width="7" height="11" rx="1" fill="#ffffff" opacity="0.16"/><rect x="121" y="316" width="7" height="11" rx="1" fill="#ffffff" opacity="0.16"/><rect x="143" y="212" width="7" height="11" rx="1" fill="#ffffff" opacity="0.16"/><rect x="143" y="290" width="7" height="11" rx="1" fill="#ffffff" opacity="0.16"/><rect x="165" y="212" width="7" height="11" rx="1" fill="#ffffff" opacity="0.16"/><rect x="165" y="238" width="7" height="11" rx="1" fill="#ffffff" opacity="0.16"/><rect x="165" y="290" width="7" height="11" rx="1" fill="#ffffff" opacity="0.16"/><rect x="165" y="342" width="7" height="11" rx="1" fill="#ffffff" opacity="0.16"/><rect x="205" y="239" width="38" height="169" rx="2"/><rect x="214" y="251" width="7" height="11" rx="1" fill="#ffffff" opacity="0.16"/><rect x="250" y="157" width="57" height="251" rx="2"/><rect x="259" y="273" width="7" height="11" rx="1" fill="#ffffff" opacity="0.16"/><rect x="259" y="325" width="7" height="11" rx="1" fill="#ffffff" opacity="0.16"/><rect x="259" y="351" width="7" height="11" rx="1" fill="#ffffff" opacity="0.16"/><rect x="281" y="195" width="7" height="11" rx="1" fill="#ffffff" opacity="0.16"/><rect x="281" y="221" width="7" height="11" rx="1" fill="#ffffff" opacity="0.16"/><rect x="281" y="247" width="7" height="11" rx="1" fill="#ffffff" opacity="0.16"/><rect x="281" y="299" width="7" height="11" rx="1" fill="#ffffff" opacity="0.16"/><rect x="281" y="351" width="7" height="11" rx="1" fill="#ffffff" opacity="0.16"/><rect x="319" y="130" width="74" height="278" rx="2"/><rect x="328" y="168" width="7" height="11" rx="1" fill="#ffffff" opacity="0.16"/><rect x="328" y="220" width="7" height="11" rx="1" fill="#ffffff" opacity="0.16"/><rect x="328" y="272" width="7" height="11" rx="1" fill="#ffffff" opacity="0.16"/><rect x="328" y="350" width="7" height="11" rx="1" fill="#ffffff" opacity="0.16"/><rect x="350" y="142" width="7" height="11" rx="1" fill="#ffffff" opacity="0.16"/><rect x="350" y="194" width="7" height="11" rx="1" fill="#ffffff" opacity="0.16"/><rect x="350" y="220" width="7" height="11" rx="1" fill="#ffffff" opacity="0.16"/><rect x="350" y="246" width="7" height="11" rx="1" fill="#ffffff" opacity="0.16"/><rect x="350" y="272" width="7" height="11" rx="1" fill="#ffffff" opacity="0.16"/><rect x="350" y="298" width="7" height="11" rx="1" fill="#ffffff" opacity="0.16"/><rect x="350" y="324" width="7" height="11" rx="1" fill="#ffffff" opacity="0.16"/><rect x="372" y="168" width="7" height="11" rx="1" fill="#ffffff" opacity="0.16"/><rect x="372" y="220" width="7" height="11" rx="1" fill="#ffffff" opacity="0.16"/><rect x="372" y="272" width="7" height="11" rx="1" fill="#ffffff" opacity="0.16"/><rect x="372" y="350" width="7" height="11" rx="1" fill="#ffffff" opacity="0.16"/><rect x="403" y="250" width="82" height="158" rx="2"/><rect x="412" y="262" width="7" height="11" rx="1" fill="#ffffff" opacity="0.16"/><rect x="412" y="288" width="7" height="11" rx="1" fill="#ffffff" opacity="0.16"/><rect x="412" y="340" width="7" height="11" rx="1" fill="#ffffff" opacity="0.16"/><rect x="434" y="262" width="7" height="11" rx="1" fill="#ffffff" opacity="0.16"/><rect x="434" y="288" width="7" height="11" rx="1" fill="#ffffff" opacity="0.16"/><rect x="434" y="314" width="7" height="11" rx="1" fill="#ffffff" opacity="0.16"/><rect x="434" y="340" width="7" height="11" rx="1" fill="#ffffff" opacity="0.16"/><rect x="456" y="288" width="7" height="11" rx="1" fill="#ffffff" opacity="0.16"/><rect x="495" y="128" width="58" height="280" rx="2"/><rect x="504" y="192" width="7" height="11" rx="1" fill="#ffffff" opacity="0.16"/><rect x="504" y="296" width="7" height="11" rx="1" fill="#ffffff" opacity="0.16"/><rect x="526" y="192" width="7" height="11" rx="1" fill="#ffffff" opacity="0.16"/><rect x="526" y="270" width="7" height="11" rx="1" fill="#ffffff" opacity="0.16"/><rect x="526" y="296" width="7" height="11" rx="1" fill="#ffffff" opacity="0.16"/><rect x="564" y="179" width="68" height="229" rx="2"/><rect x="573" y="243" width="7" height="11" rx="1" fill="#ffffff" opacity="0.16"/><rect x="573" y="269" width="7" height="11" rx="1" fill="#ffffff" opacity="0.16"/><rect x="573" y="295" width="7" height="11" rx="1" fill="#ffffff" opacity="0.16"/><rect x="573" y="321" width="7" height="11" rx="1" fill="#ffffff" opacity="0.16"/><rect x="595" y="243" width="7" height="11" rx="1" fill="#ffffff" opacity="0.16"/><rect x="595" y="269" width="7" height="11" rx="1" fill="#ffffff" opacity="0.16"/><rect x="595" y="347" width="7" height="11" rx="1" fill="#ffffff" opacity="0.16"/><rect x="617" y="217" width="7" height="11" rx="1" fill="#ffffff" opacity="0.16"/><rect x="617" y="243" width="7" height="11" rx="1" fill="#ffffff" opacity="0.16"/><rect x="617" y="269" width="7" height="11" rx="1" fill="#ffffff" opacity="0.16"/><rect x="617" y="347" width="7" height="11" rx="1" fill="#ffffff" opacity="0.16"/><rect x="638" y="246" width="48" height="162" rx="2"/><rect x="669" y="310" width="7" height="11" rx="1" fill="#ffffff" opacity="0.16"/><rect x="700" y="123" width="86" height="285" rx="2"/><rect x="709" y="135" width="7" height="11" rx="1" fill="#ffffff" opacity="0.16"/><rect x="709" y="161" width="7" height="11" rx="1" fill="#ffffff" opacity="0.16"/><rect x="709" y="213" width="7" height="11" rx="1" fill="#ffffff" opacity="0.16"/><rect x="709" y="239" width="7" height="11" rx="1" fill="#ffffff" opacity="0.16"/><rect x="709" y="265" width="7" height="11" rx="1" fill="#ffffff" opacity="0.16"/><rect x="709" y="317" width="7" height="11" rx="1" fill="#ffffff" opacity="0.16"/><rect x="709" y="343" width="7" height="11" rx="1" fill="#ffffff" opacity="0.16"/><rect x="731" y="187" width="7" height="11" rx="1" fill="#ffffff" opacity="0.16"/><rect x="753" y="187" width="7" height="11" rx="1" fill="#ffffff" opacity="0.16"/><rect x="753" y="291" width="7" height="11" rx="1" fill="#ffffff" opacity="0.16"/></g><g fill="#000000" opacity="0.42"><rect x="-40" y="233" width="42" height="248" rx="2"/><rect x="-31" y="297" width="7" height="11" rx="1" fill="#ffffff" opacity="0.16"/><rect x="-31" y="349" width="7" height="11" rx="1" fill="#ffffff" opacity="0.16"/><rect x="-31" y="375" width="7" height="11" rx="1" fill="#ffffff" opacity="0.16"/><rect x="-31" y="401" width="7" height="11" rx="1" fill="#ffffff" opacity="0.16"/><rect x="15" y="292" width="83" height="189" rx="2"/><rect x="24" y="304" width="7" height="11" rx="1" fill="#ffffff" opacity="0.16"/><rect x="24" y="382" width="7" height="11" rx="1" fill="#ffffff" opacity="0.16"/><rect x="46" y="304" width="7" height="11" rx="1" fill="#ffffff" opacity="0.16"/><rect x="46" y="330" width="7" height="11" rx="1" fill="#ffffff" opacity="0.16"/><rect x="46" y="408" width="7" height="11" rx="1" fill="#ffffff" opacity="0.16"/><rect x="68" y="304" width="7" height="11" rx="1" fill="#ffffff" opacity="0.16"/><rect x="68" y="330" width="7" height="11" rx="1" fill="#ffffff" opacity="0.16"/><rect x="68" y="356" width="7" height="11" rx="1" fill="#ffffff" opacity="0.16"/><rect x="68" y="382" width="7" height="11" rx="1" fill="#ffffff" opacity="0.16"/><rect x="68" y="408" width="7" height="11" rx="1" fill="#ffffff" opacity="0.16"/><rect x="102" y="349" width="41" height="132" rx="2"/><rect x="111" y="361" width="7" height="11" rx="1" fill="#ffffff" opacity="0.16"/><rect x="111" y="413" width="7" height="11" rx="1" fill="#ffffff" opacity="0.16"/><rect x="154" y="225" width="58" height="256" rx="2"/><rect x="163" y="393" width="7" height="11" rx="1" fill="#ffffff" opacity="0.16"/><rect x="185" y="237" width="7" height="11" rx="1" fill="#ffffff" opacity="0.16"/><rect x="185" y="263" width="7" height="11" rx="1" fill="#ffffff" opacity="0.16"/><rect x="185" y="341" width="7" height="11" rx="1" fill="#ffffff" opacity="0.16"/><rect x="185" y="367" width="7" height="11" rx="1" fill="#ffffff" opacity="0.16"/><rect x="185" y="393" width="7" height="11" rx="1" fill="#ffffff" opacity="0.16"/><rect x="217" y="319" width="83" height="162" rx="2"/><rect x="226" y="331" width="7" height="11" rx="1" fill="#ffffff" opacity="0.16"/><rect x="226" y="357" width="7" height="11" rx="1" fill="#ffffff" opacity="0.16"/><rect x="248" y="357" width="7" height="11" rx="1" fill="#ffffff" opacity="0.16"/><rect x="270" y="331" width="7" height="11" rx="1" fill="#ffffff" opacity="0.16"/><rect x="270" y="357" width="7" height="11" rx="1" fill="#ffffff" opacity="0.16"/><rect x="270" y="383" width="7" height="11" rx="1" fill="#ffffff" opacity="0.16"/><rect x="305" y="242" width="72" height="239" rx="2"/><rect x="314" y="254" width="7" height="11" rx="1" fill="#ffffff" opacity="0.16"/><rect x="314" y="358" width="7" height="11" rx="1" fill="#ffffff" opacity="0.16"/><rect x="336" y="254" width="7" height="11" rx="1" fill="#ffffff" opacity="0.16"/><rect x="336" y="384" width="7" height="11" rx="1" fill="#ffffff" opacity="0.16"/><rect x="358" y="332" width="7" height="11" rx="1" fill="#ffffff" opacity="0.16"/><rect x="358" y="358" width="7" height="11" rx="1" fill="#ffffff" opacity="0.16"/><rect x="358" y="384" width="7" height="11" rx="1" fill="#ffffff" opacity="0.16"/><rect x="358" y="410" width="7" height="11" rx="1" fill="#ffffff" opacity="0.16"/><rect x="383" y="260" width="45" height="221" rx="2"/><rect x="392" y="324" width="7" height="11" rx="1" fill="#ffffff" opacity="0.16"/><rect x="392" y="350" width="7" height="11" rx="1" fill="#ffffff" opacity="0.16"/><rect x="392" y="376" width="7" height="11" rx="1" fill="#ffffff" opacity="0.16"/><rect x="414" y="272" width="7" height="11" rx="1" fill="#ffffff" opacity="0.16"/><rect x="414" y="324" width="7" height="11" rx="1" fill="#ffffff" opacity="0.16"/><rect x="437" y="304" width="65" height="177" rx="2"/><rect x="446" y="368" width="7" height="11" rx="1" fill="#ffffff" opacity="0.16"/><rect x="446" y="420" width="7" height="11" rx="1" fill="#ffffff" opacity="0.16"/><rect x="468" y="316" width="7" height="11" rx="1" fill="#ffffff" opacity="0.16"/><rect x="468" y="368" width="7" height="11" rx="1" fill="#ffffff" opacity="0.16"/><rect x="468" y="394" width="7" height="11" rx="1" fill="#ffffff" opacity="0.16"/><rect x="468" y="420" width="7" height="11" rx="1" fill="#ffffff" opacity="0.16"/><rect x="517" y="326" width="86" height="155" rx="2"/><rect x="526" y="364" width="7" height="11" rx="1" fill="#ffffff" opacity="0.16"/><rect x="526" y="390" width="7" height="11" rx="1" fill="#ffffff" opacity="0.16"/><rect x="526" y="416" width="7" height="11" rx="1" fill="#ffffff" opacity="0.16"/><rect x="548" y="338" width="7" height="11" rx="1" fill="#ffffff" opacity="0.16"/><rect x="570" y="338" width="7" height="11" rx="1" fill="#ffffff" opacity="0.16"/><rect x="570" y="416" width="7" height="11" rx="1" fill="#ffffff" opacity="0.16"/><rect x="611" y="264" width="66" height="217" rx="2"/><rect x="620" y="302" width="7" height="11" rx="1" fill="#ffffff" opacity="0.16"/><rect x="620" y="328" width="7" height="11" rx="1" fill="#ffffff" opacity="0.16"/><rect x="620" y="354" width="7" height="11" rx="1" fill="#ffffff" opacity="0.16"/><rect x="620" y="380" width="7" height="11" rx="1" fill="#ffffff" opacity="0.16"/><rect x="642" y="302" width="7" height="11" rx="1" fill="#ffffff" opacity="0.16"/><rect x="642" y="380" width="7" height="11" rx="1" fill="#ffffff" opacity="0.16"/><rect x="664" y="406" width="7" height="11" rx="1" fill="#ffffff" opacity="0.16"/><rect x="687" y="274" width="42" height="207" rx="2"/><rect x="696" y="286" width="7" height="11" rx="1" fill="#ffffff" opacity="0.16"/><rect x="696" y="338" width="7" height="11" rx="1" fill="#ffffff" opacity="0.16"/><rect x="696" y="364" width="7" height="11" rx="1" fill="#ffffff" opacity="0.16"/><rect x="696" y="390" width="7" height="11" rx="1" fill="#ffffff" opacity="0.16"/><rect x="735" y="330" width="80" height="151" rx="2"/><rect x="744" y="342" width="7" height="11" rx="1" fill="#ffffff" opacity="0.16"/><rect x="744" y="368" width="7" height="11" rx="1" fill="#ffffff" opacity="0.16"/><rect x="744" y="420" width="7" height="11" rx="1" fill="#ffffff" opacity="0.16"/><rect x="766" y="342" width="7" height="11" rx="1" fill="#ffffff" opacity="0.16"/><rect x="766" y="368" width="7" height="11" rx="1" fill="#ffffff" opacity="0.16"/></g><rect x="0" y="439" width="700" height="23" fill="#000000" opacity="0.5"/><rect x="0" y="454" width="700" height="6" fill="#C8A24A" opacity="0.85"/><rect width="700" height="460" fill="url(#sky82)"/></svg>