<svg xmlns="http://www.w3.org/2000/svg" viewBox="0 0 800 560" width="800" height="560" role="img" aria-label="Devtaa project 11"><defs>
<linearGradient id="bg57" x1="0" y1="0" x2="1" y2="1">
<stop offset="0%" stop-color="#0B1F3A"/><stop offset="55%" stop-color="#1B3A5F"/><stop offset="100%" stop-color="#0B1F3A"/>
</linearGradient>
<linearGradient id="sky57" x1="0" y1="0" x2="0" y2="1">
<stop offset="0%" stop-color="#C8A24A" stop-opacity="0.30"/><stop offset="100%" stop-color="#C8A24A" stop-opacity="0"/>
</linearGradient>
<radialGradient id="glow57" cx="0.72" cy="0.18" r="0.6">
<stop offset="0%" stop-color="#C8A24A" stop-opacity="0.45"/><stop offset="100%" stop-color="#C8A24A" stop-opacity="0"/>
</radialGradient>
</defs><rect width="800" height="560" fill="url(#bg57)"/><rect width="800" height="560" fill="url(#glow57)"/><circle cx="592" cy="134" r="50" fill="#C8A24A" opacity="0.5"/><g fill="#000000" opacity="0.22"><rect x="-40" y="205" width="79" height="283" rx="2"/><rect x="-31" y="217" width="7" height="11" rx="1" fill="#ffffff" opacity="0.16"/><rect x="-9" y="217" width="7" height="11" rx="1" fill="#ffffff" opacity="0.16"/><rect x="-9" y="243" width="7" height="11" rx="1" fill="#ffffff" opacity="0.16"/><rect x="-9" y="373" width="7" height="11" rx="1" fill="#ffffff" opacity="0.16"/><rect x="-9" y="399" width="7" height="11" rx="1" fill="#ffffff" opacity="0.16"/><rect x="13" y="217" width="7" height="11" rx="1" fill="#ffffff" opacity="0.16"/><rect x="13" y="243" width="7" height="11" rx="1" fill="#ffffff" opacity="0.16"/><rect x="13" y="269" width="7" height="11" rx="1" fill="#ffffff" opacity="0.16"/><rect x="13" y="321" width="7" height="11" rx="1" fill="#ffffff" opacity="0.16"/><rect x="13" y="347" width="7" height="11" rx="1" fill="#ffffff" opacity="0.16"/><rect x="13" y="373" width="7" height="11" rx="1" fill="#ffffff" opacity="0.16"/><rect x="44" y="203" width="93" height="285" rx="2"/><rect x="53" y="267" width="7" height="11" rx="1" fill="#ffffff" opacity="0.16"/><rect x="53" y="293" width="7" height="11" rx="1" fill="#ffffff" opacity="0.16"/><rect x="75" y="215" width="7" height="11" rx="1" fill="#ffffff" opacity="0.16"/><rect x="75" y="319" width="7" height="11" rx="1" fill="#ffffff" opacity="0.16"/><rect x="75" y="345" width="7" height="11" rx="1" fill="#ffffff" opacity="0.16"/><rect x="75" y="423" width="7" height="11" rx="1" fill="#ffffff" opacity="0.16"/><rect x="97" y="293" width="7" height="11" rx="1" fill="#ffffff" opacity="0.16"/><rect x="97" y="397" width="7" height="11" rx="1" fill="#ffffff" opacity="0.16"/><rect x="97" y="423" width="7" height="11" rx="1" fill="#ffffff" opacity="0.16"/><rect x="119" y="267" width="7" height="11" rx="1" fill="#ffffff" opacity="0.16"/><rect x="119" y="319" width="7" height="11" rx="1" fill="#ffffff" opacity="0.16"/><rect x="119" y="345" width="7" height="11" rx="1" fill="#ffffff" opacity="0.16"/><rect x="119" y="423" width="7" height="11" rx="1" fill="#ffffff" opacity="0.16"/><rect x="147" y="181" width="96" height="307" rx="2"/><rect x="156" y="271" width="7" height="11" rx="1" fill="#ffffff" opacity="0.16"/><rect x="156" y="349" width="7" height="11" rx="1" fill="#ffffff" opacity="0.16"/><rect x="178" y="219" width="7" height="11" rx="1" fill="#ffffff" opacity="0.16"/><rect x="178" y="297" width="7" height="11" rx="1" fill="#ffffff" opacity="0.16"/><rect x="178" y="323" width="7" height="11" rx="1" fill="#ffffff" opacity="0.16"/><rect x="178" y="375" width="7" height="11" rx="1" fill="#ffffff" opacity="0.16"/><rect x="178" y="427" width="7" height="11" rx="1" fill="#ffffff" opacity="0.16"/><rect x="200" y="193" width="7" height="11" rx="1" fill="#ffffff" opacity="0.16"/><rect x="200" y="219" width="7" height="11" rx="1" fill="#ffffff" opacity="0.16"/><rect x="200" y="245" width="7" height="11" rx="1" fill="#ffffff" opacity="0.16"/><rect x="200" y="271" width="7" height="11" rx="1" fill="#ffffff" opacity="0.16"/><rect x="200" y="349" width="7" height="11" rx="1" fill="#ffffff" opacity="0.16"/><rect x="222" y="271" width="7" height="11" rx="1" fill="#ffffff" opacity="0.16"/><rect x="222" y="323" width="7" height="11" rx="1" fill="#ffffff" opacity="0.16"/><rect x="254" y="258" width="81" height="230" rx="2"/><rect x="263" y="374" width="7" height="11" rx="1" fill="#ffffff" opacity="0.16"/><rect x="263" y="426" width="7" height="11" rx="1" fill="#ffffff" opacity="0.16"/><rect x="285" y="270" width="7" height="11" rx="1" fill="#ffffff" opacity="0.16"/><rect x="285" y="348" width="7" height="11" rx="1" fill="#ffffff" opacity="0.16"/><rect x="285" y="426" width="7" height="11" rx="1" fill="#ffffff" opacity="0.16"/><rect x="307" y="270" width="7" height="11" rx="1" fill="#ffffff" opacity="0.16"/><rect x="307" y="348" width="7" height="11" rx="1" fill="#ffffff" opacity="0.16"/><rect x="307" y="426" width="7" height="11" rx="1" fill="#ffffff" opacity="0.16"/><rect x="345" y="310" width="41" height="178" rx="2"/><rect x="354" y="348" width="7" height="11" rx="1" fill="#ffffff" opacity="0.16"/><rect x="354" y="400" width="7" height="11" rx="1" fill="#ffffff" opacity="0.16"/><rect x="354" y="426" width="7" height="11" rx="1" fill="#ffffff" opacity="0.16"/><rect x="392" y="308" width="77" height="180" rx="2"/><rect x="401" y="346" width="7" height="11" rx="1" fill="#ffffff" opacity="0.16"/><rect x="401" y="372" width="7" height="11" rx="1" fill="#ffffff" opacity="0.16"/><rect x="423" y="346" width="7" height="11" rx="1" fill="#ffffff" opacity="0.16"/><rect x="423" y="398" width="7" height="11" rx="1" fill="#ffffff" opacity="0.16"/><rect x="445" y="398" width="7" height="11" rx="1" fill="#ffffff" opacity="0.16"/><rect x="445" y="424" width="7" height="11" rx="1" fill="#ffffff" opacity="0.16"/><rect x="477" y="300" width="100" height="188" rx="2"/><rect x="486" y="364" width="7" height="11" rx="1" fill="#ffffff" opacity="0.16"/><rect x="486" y="390" width="7" height="11" rx="1" fill="#ffffff" opacity="0.16"/><rect x="486" y="416" width="7" height="11" rx="1" fill="#ffffff" opacity="0.16"/><rect x="508" y="390" width="7" height="11" rx="1" fill="#ffffff" opacity="0.16"/><rect x="530" y="312" width="7" height="11" rx="1" fill="#ffffff" opacity="0.16"/><rect x="530" y="364" width="7" height="11" rx="1" fill="#ffffff" opacity="0.16"/><rect x="530" y="390" width="7" height="11" rx="1" fill="#ffffff" opacity="0.16"/><rect x="552" y="338" width="7" height="11" rx="1" fill="#ffffff" opacity="0.16"/><rect x="590" y="278" width="85" height="210" rx="2"/><rect x="599" y="316" width="7" height="11" rx="1" fill="#ffffff" opacity="0.16"/><rect x="599" y="342" width="7" height="11" rx="1" fill="#ffffff" opacity="0.16"/><rect x="599" y="368" width="7" height="11" rx="1" fill="#ffffff" opacity="0.16"/><rect x="621" y="290" width="7" height="11" rx="1" fill="#ffffff" opacity="0.16"/><rect x="621" y="316" width="7" height="11" rx="1" fill="#ffffff" opacity="0.16"/><rect x="621" y="342" width="7" height="11" rx="1" fill="#ffffff" opacity="0.16"/><rect x="621" y="368" width="7" height="11" rx="1" fill="#ffffff" opacity="0.16"/><rect x="643" y="290" width="7" height="11" rx="1" fill="#ffffff" opacity="0.16"/><rect x="643" y="316" width="7" height="11" rx="1" fill="#ffffff" opacity="0.16"/><rect x="643" y="394" width="7" height="11" rx="1" fill="#ffffff" opacity="0.16"/><rect x="684" y="347" width="71" height="141" rx="2"/><rect x="693" y="385" width="7" height="11" rx="1" fill="#ffffff" opacity="0.16"/><rect x="715" y="385" width="7" height="11" rx="1" fill="#ffffff" opacity="0.16"/><rect x="715" y="411" width="7" height="11" rx="1" fill="#ffffff" opacity="0.16"/><rect x="737" y="359" width="7" height="11" rx="1" fill="#ffffff" opacity="0.16"/><rect x="737" y="385" width="7" height="11" rx="1" fill="#ffffff" opacity="0.16"/><rect x="766" y="335" width="97" height="153" rx="2"/><rect x="775" y="373" width="7" height="11" rx="1" fill="#ffffff" opacity="0.16"/><rect x="775" y="399" width="7" height="11" rx="1" fill="#ffffff" opacity="0.16"/><rect x="775" y="425" width="7" height="11" rx="1" fill="#ffffff" opacity="0.16"/><rect x="797" y="347" width="7" height="11" rx="1" fill="#ffffff" opacity="0.16"/><rect x="797" y="425" width="7" height="11" rx="1" fill="#ffffff" opacity="0.16"/><rect x="819" y="347" width="7" height="11" rx="1" fill="#ffffff" opacity="0.16"/><rect x="819" y="373" width="7" height="11" rx="1" fill="#ffffff" opacity="0.16"/><rect x="819" y="425" width="7" height="11" rx="1" fill="#ffffff" opacity="0.16"/><rect x="841" y="347" width="7" height="11" rx="1" fill="#ffffff" opacity="0.16"/><rect x="841" y="373" width="7" height="11" rx="1" fill="#ffffff" opacity="0.16"/></g><g fill="#000000" opacity="0.42"><rect x="-40" y="309" width="94" height="268" rx="2"/><rect x="-31" y="321" width="7" height="11" rx="1" fill="#ffffff" opacity="0.16"/><rect x="-9" y="321" width="7" height="11" rx="1" fill="#ffffff" opacity="0.16"/><rect x="-9" y="347" width="7" height="11" rx="1" fill="#ffffff" opacity="0.16"/><rect x="-9" y="399" width="7" height="11" rx="1" fill="#ffffff" opacity="0.16"/><rect x="-9" y="425" width="7" height="11" rx="1" fill="#ffffff" opacity="0.16"/><rect x="13" y="373" width="7" height="11" rx="1" fill="#ffffff" opacity="0.16"/><rect x="35" y="399" width="7" height="11" rx="1" fill="#ffffff" opacity="0.16"/><rect x="35" y="425" width="7" height="11" rx="1" fill="#ffffff" opacity="0.16"/><rect x="35" y="503" width="7" height="11" rx="1" fill="#ffffff" opacity="0.16"/><rect x="61" y="333" width="88" height="244" rx="2"/><rect x="70" y="345" width="7" height="11" rx="1" fill="#ffffff" opacity="0.16"/><rect x="70" y="371" width="7" height="11" rx="1" fill="#ffffff" opacity="0.16"/><rect x="70" y="397" width="7" height="11" rx="1" fill="#ffffff" opacity="0.16"/><rect x="70" y="501" width="7" height="11" rx="1" fill="#ffffff" opacity="0.16"/><rect x="92" y="371" width="7" height="11" rx="1" fill="#ffffff" opacity="0.16"/><rect x="92" y="397" width="7" height="11" rx="1" fill="#ffffff" opacity="0.16"/><rect x="92" y="423" width="7" height="11" rx="1" fill="#ffffff" opacity="0.16"/><rect x="92" y="449" width="7" height="11" rx="1" fill="#ffffff" opacity="0.16"/><rect x="92" y="501" width="7" height="11" rx="1" fill="#ffffff" opacity="0.16"/><rect x="114" y="345" width="7" height="11" rx="1" fill="#ffffff" opacity="0.16"/><rect x="114" y="397" width="7" height="11" rx="1" fill="#ffffff" opacity="0.16"/><rect x="114" y="449" width="7" height="11" rx="1" fill="#ffffff" opacity="0.16"/><rect x="114" y="475" width="7" height="11" rx="1" fill="#ffffff" opacity="0.16"/><rect x="114" y="501" width="7" height="11" rx="1" fill="#ffffff" opacity="0.16"/><rect x="136" y="345" width="7" height="11" rx="1" fill="#ffffff" opacity="0.16"/><rect x="136" y="397" width="7" height="11" rx="1" fill="#ffffff" opacity="0.16"/><rect x="136" y="449" width="7" height="11" rx="1" fill="#ffffff" opacity="0.16"/><rect x="136" y="501" width="7" height="11" rx="1" fill="#ffffff" opacity="0.16"/><rect x="159" y="321" width="81" height="256" rx="2"/><rect x="168" y="385" width="7" height="11" rx="1" fill="#ffffff" opacity="0.16"/><rect x="168" y="463" width="7" height="11" rx="1" fill="#ffffff" opacity="0.16"/><rect x="168" y="515" width="7" height="11" rx="1" fill="#ffffff" opacity="0.16"/><rect x="190" y="359" width="7" height="11" rx="1" fill="#ffffff" opacity="0.16"/><rect x="190" y="411" width="7" height="11" rx="1" fill="#ffffff" opacity="0.16"/><rect x="190" y="463" width="7" height="11" rx="1" fill="#ffffff" opacity="0.16"/><rect x="190" y="489" width="7" height="11" rx="1" fill="#ffffff" opacity="0.16"/><rect x="212" y="385" width="7" height="11" rx="1" fill="#ffffff" opacity="0.16"/><rect x="212" y="437" width="7" height="11" rx="1" fill="#ffffff" opacity="0.16"/><rect x="212" y="463" width="7" height="11" rx="1" fill="#ffffff" opacity="0.16"/><rect x="246" y="431" width="89" height="146" rx="2"/><rect x="255" y="521" width="7" height="11" rx="1" fill="#ffffff" opacity="0.16"/><rect x="277" y="469" width="7" height="11" rx="1" fill="#ffffff" opacity="0.16"/><rect x="277" y="495" width="7" height="11" rx="1" fill="#ffffff" opacity="0.16"/><rect x="299" y="443" width="7" height="11" rx="1" fill="#ffffff" opacity="0.16"/><rect x="299" y="495" width="7" height="11" rx="1" fill="#ffffff" opacity="0.16"/><rect x="321" y="443" width="7" height="11" rx="1" fill="#ffffff" opacity="0.16"/><rect x="321" y="521" width="7" height="11" rx="1" fill="#ffffff" opacity="0.16"/><rect x="340" y="317" width="70" height="260" rx="2"/><rect x="349" y="329" width="7" height="11" rx="1" fill="#ffffff" opacity="0.16"/><rect x="349" y="381" width="7" height="11" rx="1" fill="#ffffff" opacity="0.16"/><rect x="371" y="355" width="7" height="11" rx="1" fill="#ffffff" opacity="0.16"/><rect x="371" y="407" width="7" height="11" rx="1" fill="#ffffff" opacity="0.16"/><rect x="371" y="459" width="7" height="11" rx="1" fill="#ffffff" opacity="0.16"/><rect x="393" y="355" width="7" height="11" rx="1" fill="#ffffff" opacity="0.16"/><rect x="393" y="381" width="7" height="11" rx="1" fill="#ffffff" opacity="0.16"/><rect x="393" y="433" width="7" height="11" rx="1" fill="#ffffff" opacity="0.16"/><rect x="393" y="459" width="7" height="11" rx="1" fill="#ffffff" opacity="0.16"/><rect x="423" y="379" width="61" height="198" rx="2"/><rect x="432" y="417" width="7" height="11" rx="1" fill="#ffffff" opacity="0.16"/><rect x="432" y="495" width="7" height="11" rx="1" fill="#ffffff" opacity="0.16"/><rect x="454" y="443" width="7" height="11" rx="1" fill="#ffffff" opacity="0.16"/><rect x="497" y="296" width="45" height="281" rx="2"/><rect x="506" y="386" width="7" height="11" rx="1" fill="#ffffff" opacity="0.16"/><rect x="506" y="516" width="7" height="11" rx="1" fill="#ffffff" opacity="0.16"/><rect x="528" y="308" width="7" height="11" rx="1" fill="#ffffff" opacity="0.16"/><rect x="528" y="334" width="7" height="11" rx="1" fill="#ffffff" opacity="0.16"/><rect x="528" y="360" width="7" height="11" rx="1" fill="#ffffff" opacity="0.16"/><rect x="528" y="516" width="7" height="11" rx="1" fill="#ffffff" opacity="0.16"/><rect x="553" y="254" width="51" height="323" rx="2"/><rect x="562" y="292" width="7" height="11" rx="1" fill="#ffffff" opacity="0.16"/><rect x="562" y="448" width="7" height="11" rx="1" fill="#ffffff" opacity="0.16"/><rect x="584" y="318" width="7" height="11" rx="1" fill="#ffffff" opacity="0.16"/><rect x="584" y="370" width="7" height="11" rx="1" fill="#ffffff" opacity="0.16"/><rect x="584" y="448" width="7" height="11" rx="1" fill="#ffffff" opacity="0.16"/><rect x="584" y="474" width="7" height="11" rx="1" fill="#ffffff" opacity="0.16"/><rect x="584" y="500" width="7" height="11" rx="1" fill="#ffffff" opacity="0.16"/><rect x="619" y="372" width="65" height="205" rx="2"/><rect x="628" y="436" width="7" height="11" rx="1" fill="#ffffff" opacity="0.16"/><rect x="628" y="462" width="7" height="11" rx="1" fill="#ffffff" opacity="0.16"/><rect x="628" y="488" width="7" height="11" rx="1" fill="#ffffff" opacity="0.16"/><rect x="628" y="514" width="7" height="11" rx="1" fill="#ffffff" opacity="0.16"/><rect x="650" y="384" width="7" height="11" rx="1" fill="#ffffff" opacity="0.16"/><rect x="650" y="410" width="7" height="11" rx="1" fill="#ffffff" opacity="0.16"/><rect x="650" y="436" width="7" height="11" rx="1" fill="#ffffff" opacity="0.16"/><rect x="650" y="514" width="7" height="11" rx="1" fill="#ffffff" opacity="0.16"/><rect x="690" y="389" width="101" height="188" rx="2"/><rect x="699" y="401" width="7" height="11" rx="1" fill="#ffffff" opacity="0.16"/><rect x="721" y="427" width="7" height="11" rx="1" fill="#ffffff" opacity="0.16"/><rect x="721" y="453" width="7" height="11" rx="1" fill="#ffffff" opacity="0.16"/><rect x="743" y="453" width="7" height="11" rx="1" fill="#ffffff" opacity="0.16"/><rect x="743" y="479" width="7" height="11" rx="1" fill="#ffffff" opacity="0.16"/><rect x="765" y="401" width="7" height="11" rx="1" fill="#ffffff" opacity="0.16"/><rect x="765" y="427" width="7" height="11" rx="1" fill="#ffffff" opacity="0.16"/><rect x="765" y="479" width="7" height="11" rx="1" fill="#ffffff" opacity="0.16"/><rect x="765" y="505" width="7" height="11" rx="1" fill="#ffffff" opacity="0.16"/><rect x="799" y="432" width="59" height="145" rx="2"/><rect x="808" y="444" width="7" height="11" rx="1" fill="#ffffff" opacity="0.16"/><rect x="808" y="470" width="7" height="11" rx="1" fill="#ffffff" opacity="0.16"/><rect x="830" y="444" width="7" height="11" rx="1" fill="#ffffff" opacity="0.16"/><rect x="830" y="470" width="7" height="11" rx="1" fill="#ffffff" opacity="0.16"/><rect x="830" y="496" width="7" height="11" rx="1" fill="#ffffff" opacity="0.16"/><rect x="830" y="522" width="7" height="11" rx="1" fill="#ffffff" opacity="0.16"/></g><rect x="0" y="535" width="800" height="28" fill="#000000" opacity="0.5"/><rect x="0" y="554" width="800" height="6" fill="#C8A24A" opacity="0.85"/><rect width="800" height="560" fill="url(#sky57)"/></svg>