<svg xmlns="http://www.w3.org/2000/svg" viewBox="0 0 800 560" width="800" height="560" role="img" aria-label="Devtaa project 4"><defs>
<linearGradient id="bg22" x1="0" y1="0" x2="1" y2="1">
<stop offset="0%" stop-color="#1D1B2E"/><stop offset="55%" stop-color="#3A3457"/><stop offset="100%" stop-color="#1D1B2E"/>
</linearGradient>
<linearGradient id="sky22" x1="0" y1="0" x2="0" y2="1">
<stop offset="0%" stop-color="#C7A15B" stop-opacity="0.30"/><stop offset="100%" stop-color="#C7A15B" stop-opacity="0"/>
</linearGradient>
<radialGradient id="glow22" cx="0.72" cy="0.18" r="0.6">
<stop offset="0%" stop-color="#C7A15B" stop-opacity="0.45"/><stop offset="100%" stop-color="#C7A15B" stop-opacity="0"/>
</radialGradient>
</defs><rect width="800" height="560" fill="url(#bg22)"/><rect width="800" height="560" fill="url(#glow22)"/><circle cx="592" cy="134" r="50" fill="#C7A15B" opacity="0.5"/><g fill="#000000" opacity="0.22"><rect x="-40" y="210" width="104" height="278" rx="2"/><rect x="-31" y="248" width="7" height="11" rx="1" fill="#ffffff" opacity="0.16"/><rect x="-31" y="352" width="7" height="11" rx="1" fill="#ffffff" opacity="0.16"/><rect x="-9" y="326" width="7" height="11" rx="1" fill="#ffffff" opacity="0.16"/><rect x="-9" y="352" width="7" height="11" rx="1" fill="#ffffff" opacity="0.16"/><rect x="-9" y="404" width="7" height="11" rx="1" fill="#ffffff" opacity="0.16"/><rect x="-9" y="430" width="7" height="11" rx="1" fill="#ffffff" opacity="0.16"/><rect x="13" y="222" width="7" height="11" rx="1" fill="#ffffff" opacity="0.16"/><rect x="13" y="274" width="7" height="11" rx="1" fill="#ffffff" opacity="0.16"/><rect x="13" y="300" width="7" height="11" rx="1" fill="#ffffff" opacity="0.16"/><rect x="13" y="352" width="7" height="11" rx="1" fill="#ffffff" opacity="0.16"/><rect x="13" y="404" width="7" height="11" rx="1" fill="#ffffff" opacity="0.16"/><rect x="13" y="430" width="7" height="11" rx="1" fill="#ffffff" opacity="0.16"/><rect x="35" y="248" width="7" height="11" rx="1" fill="#ffffff" opacity="0.16"/><rect x="35" y="274" width="7" height="11" rx="1" fill="#ffffff" opacity="0.16"/><rect x="35" y="404" width="7" height="11" rx="1" fill="#ffffff" opacity="0.16"/><rect x="80" y="303" width="44" height="185" rx="2"/><rect x="89" y="315" width="7" height="11" rx="1" fill="#ffffff" opacity="0.16"/><rect x="89" y="393" width="7" height="11" rx="1" fill="#ffffff" opacity="0.16"/><rect x="89" y="419" width="7" height="11" rx="1" fill="#ffffff" opacity="0.16"/><rect x="111" y="341" width="7" height="11" rx="1" fill="#ffffff" opacity="0.16"/><rect x="131" y="239" width="70" height="249" rx="2"/><rect x="140" y="303" width="7" height="11" rx="1" fill="#ffffff" opacity="0.16"/><rect x="140" y="407" width="7" height="11" rx="1" fill="#ffffff" opacity="0.16"/><rect x="162" y="303" width="7" height="11" rx="1" fill="#ffffff" opacity="0.16"/><rect x="162" y="329" width="7" height="11" rx="1" fill="#ffffff" opacity="0.16"/><rect x="162" y="355" width="7" height="11" rx="1" fill="#ffffff" opacity="0.16"/><rect x="184" y="251" width="7" height="11" rx="1" fill="#ffffff" opacity="0.16"/><rect x="184" y="277" width="7" height="11" rx="1" fill="#ffffff" opacity="0.16"/><rect x="184" y="329" width="7" height="11" rx="1" fill="#ffffff" opacity="0.16"/><rect x="184" y="407" width="7" height="11" rx="1" fill="#ffffff" opacity="0.16"/><rect x="215" y="262" width="49" height="226" rx="2"/><rect x="224" y="352" width="7" height="11" rx="1" fill="#ffffff" opacity="0.16"/><rect x="224" y="378" width="7" height="11" rx="1" fill="#ffffff" opacity="0.16"/><rect x="246" y="352" width="7" height="11" rx="1" fill="#ffffff" opacity="0.16"/><rect x="246" y="430" width="7" height="11" rx="1" fill="#ffffff" opacity="0.16"/><rect x="268" y="323" width="102" height="165" rx="2"/><rect x="277" y="335" width="7" height="11" rx="1" fill="#ffffff" opacity="0.16"/><rect x="277" y="361" width="7" height="11" rx="1" fill="#ffffff" opacity="0.16"/><rect x="277" y="387" width="7" height="11" rx="1" fill="#ffffff" opacity="0.16"/><rect x="299" y="335" width="7" height="11" rx="1" fill="#ffffff" opacity="0.16"/><rect x="299" y="387" width="7" height="11" rx="1" fill="#ffffff" opacity="0.16"/><rect x="299" y="413" width="7" height="11" rx="1" fill="#ffffff" opacity="0.16"/><rect x="321" y="335" width="7" height="11" rx="1" fill="#ffffff" opacity="0.16"/><rect x="321" y="361" width="7" height="11" rx="1" fill="#ffffff" opacity="0.16"/><rect x="343" y="387" width="7" height="11" rx="1" fill="#ffffff" opacity="0.16"/><rect x="378" y="161" width="66" height="327" rx="2"/><rect x="387" y="199" width="7" height="11" rx="1" fill="#ffffff" opacity="0.16"/><rect x="387" y="225" width="7" height="11" rx="1" fill="#ffffff" opacity="0.16"/><rect x="387" y="277" width="7" height="11" rx="1" fill="#ffffff" opacity="0.16"/><rect x="387" y="329" width="7" height="11" rx="1" fill="#ffffff" opacity="0.16"/><rect x="387" y="407" width="7" height="11" rx="1" fill="#ffffff" opacity="0.16"/><rect x="387" y="433" width="7" height="11" rx="1" fill="#ffffff" opacity="0.16"/><rect x="409" y="225" width="7" height="11" rx="1" fill="#ffffff" opacity="0.16"/><rect x="409" y="329" width="7" height="11" rx="1" fill="#ffffff" opacity="0.16"/><rect x="409" y="381" width="7" height="11" rx="1" fill="#ffffff" opacity="0.16"/><rect x="409" y="433" width="7" height="11" rx="1" fill="#ffffff" opacity="0.16"/><rect x="431" y="173" width="7" height="11" rx="1" fill="#ffffff" opacity="0.16"/><rect x="431" y="225" width="7" height="11" rx="1" fill="#ffffff" opacity="0.16"/><rect x="431" y="277" width="7" height="11" rx="1" fill="#ffffff" opacity="0.16"/><rect x="431" y="407" width="7" height="11" rx="1" fill="#ffffff" opacity="0.16"/><rect x="431" y="433" width="7" height="11" rx="1" fill="#ffffff" opacity="0.16"/><rect x="448" y="287" width="53" height="201" rx="2"/><rect x="457" y="299" width="7" height="11" rx="1" fill="#ffffff" opacity="0.16"/><rect x="457" y="351" width="7" height="11" rx="1" fill="#ffffff" opacity="0.16"/><rect x="457" y="429" width="7" height="11" rx="1" fill="#ffffff" opacity="0.16"/><rect x="479" y="377" width="7" height="11" rx="1" fill="#ffffff" opacity="0.16"/><rect x="479" y="403" width="7" height="11" rx="1" fill="#ffffff" opacity="0.16"/><rect x="511" y="271" width="91" height="217" rx="2"/><rect x="520" y="283" width="7" height="11" rx="1" fill="#ffffff" opacity="0.16"/><rect x="520" y="361" width="7" height="11" rx="1" fill="#ffffff" opacity="0.16"/><rect x="520" y="387" width="7" height="11" rx="1" fill="#ffffff" opacity="0.16"/><rect x="520" y="413" width="7" height="11" rx="1" fill="#ffffff" opacity="0.16"/><rect x="542" y="335" width="7" height="11" rx="1" fill="#ffffff" opacity="0.16"/><rect x="542" y="413" width="7" height="11" rx="1" fill="#ffffff" opacity="0.16"/><rect x="564" y="283" width="7" height="11" rx="1" fill="#ffffff" opacity="0.16"/><rect x="564" y="413" width="7" height="11" rx="1" fill="#ffffff" opacity="0.16"/><rect x="586" y="283" width="7" height="11" rx="1" fill="#ffffff" opacity="0.16"/><rect x="586" y="413" width="7" height="11" rx="1" fill="#ffffff" opacity="0.16"/><rect x="610" y="214" width="98" height="274" rx="2"/><rect x="619" y="226" width="7" height="11" rx="1" fill="#ffffff" opacity="0.16"/><rect x="619" y="278" width="7" height="11" rx="1" fill="#ffffff" opacity="0.16"/><rect x="619" y="304" width="7" height="11" rx="1" fill="#ffffff" opacity="0.16"/><rect x="619" y="356" width="7" height="11" rx="1" fill="#ffffff" opacity="0.16"/><rect x="619" y="434" width="7" height="11" rx="1" fill="#ffffff" opacity="0.16"/><rect x="641" y="226" width="7" height="11" rx="1" fill="#ffffff" opacity="0.16"/><rect x="641" y="252" width="7" height="11" rx="1" fill="#ffffff" opacity="0.16"/><rect x="641" y="304" width="7" height="11" rx="1" fill="#ffffff" opacity="0.16"/><rect x="641" y="356" width="7" height="11" rx="1" fill="#ffffff" opacity="0.16"/><rect x="641" y="382" width="7" height="11" rx="1" fill="#ffffff" opacity="0.16"/><rect x="641" y="408" width="7" height="11" rx="1" fill="#ffffff" opacity="0.16"/><rect x="663" y="226" width="7" height="11" rx="1" fill="#ffffff" opacity="0.16"/><rect x="663" y="330" width="7" height="11" rx="1" fill="#ffffff" opacity="0.16"/><rect x="663" y="408" width="7" height="11" rx="1" fill="#ffffff" opacity="0.16"/><rect x="685" y="226" width="7" height="11" rx="1" fill="#ffffff" opacity="0.16"/><rect x="685" y="330" width="7" height="11" rx="1" fill="#ffffff" opacity="0.16"/><rect x="685" y="408" width="7" height="11" rx="1" fill="#ffffff" opacity="0.16"/><rect x="685" y="434" width="7" height="11" rx="1" fill="#ffffff" opacity="0.16"/><rect x="722" y="172" width="87" height="316" rx="2"/><rect x="731" y="262" width="7" height="11" rx="1" fill="#ffffff" opacity="0.16"/><rect x="731" y="366" width="7" height="11" rx="1" fill="#ffffff" opacity="0.16"/><rect x="731" y="418" width="7" height="11" rx="1" fill="#ffffff" opacity="0.16"/><rect x="753" y="184" width="7" height="11" rx="1" fill="#ffffff" opacity="0.16"/><rect x="753" y="236" width="7" height="11" rx="1" fill="#ffffff" opacity="0.16"/><rect x="753" y="262" width="7" height="11" rx="1" fill="#ffffff" opacity="0.16"/><rect x="753" y="288" width="7" height="11" rx="1" fill="#ffffff" opacity="0.16"/><rect x="753" y="340" width="7" height="11" rx="1" fill="#ffffff" opacity="0.16"/><rect x="775" y="184" width="7" height="11" rx="1" fill="#ffffff" opacity="0.16"/><rect x="775" y="210" width="7" height="11" rx="1" fill="#ffffff" opacity="0.16"/><rect x="775" y="262" width="7" height="11" rx="1" fill="#ffffff" opacity="0.16"/><rect x="775" y="418" width="7" height="11" rx="1" fill="#ffffff" opacity="0.16"/><rect x="814" y="240" width="67" height="248" rx="2"/><rect x="823" y="278" width="7" height="11" rx="1" fill="#ffffff" opacity="0.16"/><rect x="823" y="304" width="7" height="11" rx="1" fill="#ffffff" opacity="0.16"/><rect x="823" y="356" width="7" height="11" rx="1" fill="#ffffff" opacity="0.16"/><rect x="823" y="434" width="7" height="11" rx="1" fill="#ffffff" opacity="0.16"/><rect x="845" y="252" width="7" height="11" rx="1" fill="#ffffff" opacity="0.16"/><rect x="845" y="304" width="7" height="11" rx="1" fill="#ffffff" opacity="0.16"/><rect x="845" y="356" width="7" height="11" rx="1" fill="#ffffff" opacity="0.16"/><rect x="845" y="408" width="7" height="11" rx="1" fill="#ffffff" opacity="0.16"/><rect x="867" y="304" width="7" height="11" rx="1" fill="#ffffff" opacity="0.16"/><rect x="867" y="356" width="7" height="11" rx="1" fill="#ffffff" opacity="0.16"/><rect x="867" y="408" width="7" height="11" rx="1" fill="#ffffff" opacity="0.16"/></g><g fill="#000000" opacity="0.42"><rect x="-40" y="250" width="100" height="327" rx="2"/><rect x="-31" y="314" width="7" height="11" rx="1" fill="#ffffff" opacity="0.16"/><rect x="-31" y="392" width="7" height="11" rx="1" fill="#ffffff" opacity="0.16"/><rect x="-31" y="470" width="7" height="11" rx="1" fill="#ffffff" opacity="0.16"/><rect x="-9" y="314" width="7" height="11" rx="1" fill="#ffffff" opacity="0.16"/><rect x="-9" y="340" width="7" height="11" rx="1" fill="#ffffff" opacity="0.16"/><rect x="-9" y="444" width="7" height="11" rx="1" fill="#ffffff" opacity="0.16"/><rect x="-9" y="470" width="7" height="11" rx="1" fill="#ffffff" opacity="0.16"/><rect x="-9" y="522" width="7" height="11" rx="1" fill="#ffffff" opacity="0.16"/><rect x="13" y="262" width="7" height="11" rx="1" fill="#ffffff" opacity="0.16"/><rect x="13" y="288" width="7" height="11" rx="1" fill="#ffffff" opacity="0.16"/><rect x="13" y="314" width="7" height="11" rx="1" fill="#ffffff" opacity="0.16"/><rect x="13" y="392" width="7" height="11" rx="1" fill="#ffffff" opacity="0.16"/><rect x="13" y="496" width="7" height="11" rx="1" fill="#ffffff" opacity="0.16"/><rect x="13" y="522" width="7" height="11" rx="1" fill="#ffffff" opacity="0.16"/><rect x="35" y="366" width="7" height="11" rx="1" fill="#ffffff" opacity="0.16"/><rect x="35" y="522" width="7" height="11" rx="1" fill="#ffffff" opacity="0.16"/><rect x="74" y="233" width="46" height="344" rx="2"/><rect x="83" y="271" width="7" height="11" rx="1" fill="#ffffff" opacity="0.16"/><rect x="83" y="323" width="7" height="11" rx="1" fill="#ffffff" opacity="0.16"/><rect x="83" y="349" width="7" height="11" rx="1" fill="#ffffff" opacity="0.16"/><rect x="83" y="375" width="7" height="11" rx="1" fill="#ffffff" opacity="0.16"/><rect x="83" y="479" width="7" height="11" rx="1" fill="#ffffff" opacity="0.16"/><rect x="105" y="505" width="7" height="11" rx="1" fill="#ffffff" opacity="0.16"/><rect x="125" y="392" width="98" height="185" rx="2"/><rect x="134" y="508" width="7" height="11" rx="1" fill="#ffffff" opacity="0.16"/><rect x="156" y="404" width="7" height="11" rx="1" fill="#ffffff" opacity="0.16"/><rect x="156" y="430" width="7" height="11" rx="1" fill="#ffffff" opacity="0.16"/><rect x="156" y="482" width="7" height="11" rx="1" fill="#ffffff" opacity="0.16"/><rect x="178" y="508" width="7" height="11" rx="1" fill="#ffffff" opacity="0.16"/><rect x="200" y="404" width="7" height="11" rx="1" fill="#ffffff" opacity="0.16"/><rect x="200" y="482" width="7" height="11" rx="1" fill="#ffffff" opacity="0.16"/><rect x="200" y="508" width="7" height="11" rx="1" fill="#ffffff" opacity="0.16"/><rect x="229" y="401" width="77" height="176" rx="2"/><rect x="238" y="439" width="7" height="11" rx="1" fill="#ffffff" opacity="0.16"/><rect x="238" y="465" width="7" height="11" rx="1" fill="#ffffff" opacity="0.16"/><rect x="238" y="491" width="7" height="11" rx="1" fill="#ffffff" opacity="0.16"/><rect x="260" y="465" width="7" height="11" rx="1" fill="#ffffff" opacity="0.16"/><rect x="260" y="491" width="7" height="11" rx="1" fill="#ffffff" opacity="0.16"/><rect x="260" y="517" width="7" height="11" rx="1" fill="#ffffff" opacity="0.16"/><rect x="282" y="439" width="7" height="11" rx="1" fill="#ffffff" opacity="0.16"/><rect x="282" y="465" width="7" height="11" rx="1" fill="#ffffff" opacity="0.16"/><rect x="282" y="491" width="7" height="11" rx="1" fill="#ffffff" opacity="0.16"/><rect x="313" y="391" width="42" height="186" rx="2"/><rect x="322" y="507" width="7" height="11" rx="1" fill="#ffffff" opacity="0.16"/><rect x="371" y="340" width="67" height="237" rx="2"/><rect x="380" y="352" width="7" height="11" rx="1" fill="#ffffff" opacity="0.16"/><rect x="380" y="482" width="7" height="11" rx="1" fill="#ffffff" opacity="0.16"/><rect x="402" y="352" width="7" height="11" rx="1" fill="#ffffff" opacity="0.16"/><rect x="402" y="404" width="7" height="11" rx="1" fill="#ffffff" opacity="0.16"/><rect x="402" y="456" width="7" height="11" rx="1" fill="#ffffff" opacity="0.16"/><rect x="402" y="482" width="7" height="11" rx="1" fill="#ffffff" opacity="0.16"/><rect x="402" y="508" width="7" height="11" rx="1" fill="#ffffff" opacity="0.16"/><rect x="424" y="378" width="7" height="11" rx="1" fill="#ffffff" opacity="0.16"/><rect x="424" y="404" width="7" height="11" rx="1" fill="#ffffff" opacity="0.16"/><rect x="424" y="456" width="7" height="11" rx="1" fill="#ffffff" opacity="0.16"/><rect x="424" y="482" width="7" height="11" rx="1" fill="#ffffff" opacity="0.16"/><rect x="424" y="508" width="7" height="11" rx="1" fill="#ffffff" opacity="0.16"/><rect x="449" y="273" width="55" height="304" rx="2"/><rect x="458" y="337" width="7" height="11" rx="1" fill="#ffffff" opacity="0.16"/><rect x="458" y="415" width="7" height="11" rx="1" fill="#ffffff" opacity="0.16"/><rect x="458" y="441" width="7" height="11" rx="1" fill="#ffffff" opacity="0.16"/><rect x="458" y="493" width="7" height="11" rx="1" fill="#ffffff" opacity="0.16"/><rect x="480" y="337" width="7" height="11" rx="1" fill="#ffffff" opacity="0.16"/><rect x="480" y="389" width="7" height="11" rx="1" fill="#ffffff" opacity="0.16"/><rect x="480" y="415" width="7" height="11" rx="1" fill="#ffffff" opacity="0.16"/><rect x="480" y="467" width="7" height="11" rx="1" fill="#ffffff" opacity="0.16"/><rect x="480" y="519" width="7" height="11" rx="1" fill="#ffffff" opacity="0.16"/><rect x="512" y="273" width="95" height="304" rx="2"/><rect x="521" y="441" width="7" height="11" rx="1" fill="#ffffff" opacity="0.16"/><rect x="521" y="467" width="7" height="11" rx="1" fill="#ffffff" opacity="0.16"/><rect x="521" y="519" width="7" height="11" rx="1" fill="#ffffff" opacity="0.16"/><rect x="543" y="285" width="7" height="11" rx="1" fill="#ffffff" opacity="0.16"/><rect x="543" y="311" width="7" height="11" rx="1" fill="#ffffff" opacity="0.16"/><rect x="543" y="363" width="7" height="11" rx="1" fill="#ffffff" opacity="0.16"/><rect x="543" y="389" width="7" height="11" rx="1" fill="#ffffff" opacity="0.16"/><rect x="543" y="467" width="7" height="11" rx="1" fill="#ffffff" opacity="0.16"/><rect x="543" y="493" width="7" height="11" rx="1" fill="#ffffff" opacity="0.16"/><rect x="565" y="311" width="7" height="11" rx="1" fill="#ffffff" opacity="0.16"/><rect x="565" y="337" width="7" height="11" rx="1" fill="#ffffff" opacity="0.16"/><rect x="565" y="363" width="7" height="11" rx="1" fill="#ffffff" opacity="0.16"/><rect x="565" y="415" width="7" height="11" rx="1" fill="#ffffff" opacity="0.16"/><rect x="587" y="311" width="7" height="11" rx="1" fill="#ffffff" opacity="0.16"/><rect x="587" y="337" width="7" height="11" rx="1" fill="#ffffff" opacity="0.16"/><rect x="587" y="363" width="7" height="11" rx="1" fill="#ffffff" opacity="0.16"/><rect x="587" y="389" width="7" height="11" rx="1" fill="#ffffff" opacity="0.16"/><rect x="621" y="244" width="70" height="333" rx="2"/><rect x="630" y="282" width="7" height="11" rx="1" fill="#ffffff" opacity="0.16"/><rect x="630" y="334" width="7" height="11" rx="1" fill="#ffffff" opacity="0.16"/><rect x="630" y="412" width="7" height="11" rx="1" fill="#ffffff" opacity="0.16"/><rect x="630" y="490" width="7" height="11" rx="1" fill="#ffffff" opacity="0.16"/><rect x="652" y="256" width="7" height="11" rx="1" fill="#ffffff" opacity="0.16"/><rect x="652" y="308" width="7" height="11" rx="1" fill="#ffffff" opacity="0.16"/><rect x="652" y="334" width="7" height="11" rx="1" fill="#ffffff" opacity="0.16"/><rect x="652" y="464" width="7" height="11" rx="1" fill="#ffffff" opacity="0.16"/><rect x="652" y="490" width="7" height="11" rx="1" fill="#ffffff" opacity="0.16"/><rect x="652" y="516" width="7" height="11" rx="1" fill="#ffffff" opacity="0.16"/><rect x="674" y="282" width="7" height="11" rx="1" fill="#ffffff" opacity="0.16"/><rect x="674" y="360" width="7" height="11" rx="1" fill="#ffffff" opacity="0.16"/><rect x="674" y="412" width="7" height="11" rx="1" fill="#ffffff" opacity="0.16"/><rect x="674" y="438" width="7" height="11" rx="1" fill="#ffffff" opacity="0.16"/><rect x="674" y="490" width="7" height="11" rx="1" fill="#ffffff" opacity="0.16"/><rect x="706" y="310" width="69" height="267" rx="2"/><rect x="715" y="322" width="7" height="11" rx="1" fill="#ffffff" opacity="0.16"/><rect x="715" y="348" width="7" height="11" rx="1" fill="#ffffff" opacity="0.16"/><rect x="715" y="374" width="7" height="11" rx="1" fill="#ffffff" opacity="0.16"/><rect x="715" y="400" width="7" height="11" rx="1" fill="#ffffff" opacity="0.16"/><rect x="715" y="452" width="7" height="11" rx="1" fill="#ffffff" opacity="0.16"/><rect x="715" y="478" width="7" height="11" rx="1" fill="#ffffff" opacity="0.16"/><rect x="737" y="322" width="7" height="11" rx="1" fill="#ffffff" opacity="0.16"/><rect x="737" y="478" width="7" height="11" rx="1" fill="#ffffff" opacity="0.16"/><rect x="759" y="322" width="7" height="11" rx="1" fill="#ffffff" opacity="0.16"/><rect x="759" y="348" width="7" height="11" rx="1" fill="#ffffff" opacity="0.16"/><rect x="759" y="426" width="7" height="11" rx="1" fill="#ffffff" opacity="0.16"/><rect x="759" y="452" width="7" height="11" rx="1" fill="#ffffff" opacity="0.16"/><rect x="759" y="478" width="7" height="11" rx="1" fill="#ffffff" opacity="0.16"/><rect x="785" y="357" width="44" height="220" rx="2"/><rect x="794" y="395" width="7" height="11" rx="1" fill="#ffffff" opacity="0.16"/><rect x="794" y="473" width="7" height="11" rx="1" fill="#ffffff" opacity="0.16"/><rect x="839" y="356" width="69" height="221" rx="2"/><rect x="848" y="368" width="7" height="11" rx="1" fill="#ffffff" opacity="0.16"/><rect x="848" y="472" width="7" height="11" rx="1" fill="#ffffff" opacity="0.16"/><rect x="848" y="498" width="7" height="11" rx="1" fill="#ffffff" opacity="0.16"/><rect x="870" y="368" width="7" height="11" rx="1" fill="#ffffff" opacity="0.16"/><rect x="870" y="472" width="7" height="11" rx="1" fill="#ffffff" opacity="0.16"/><rect x="892" y="394" width="7" height="11" rx="1" fill="#ffffff" opacity="0.16"/><rect x="892" y="472" width="7" height="11" rx="1" fill="#ffffff" opacity="0.16"/><rect x="892" y="498" width="7" height="11" rx="1" fill="#ffffff" opacity="0.16"/></g><rect x="0" y="535" width="800" height="28" fill="#000000" opacity="0.5"/><rect x="0" y="554" width="800" height="6" fill="#C7A15B" opacity="0.85"/><rect width="800" height="560" fill="url(#sky22)"/></svg>